<?xml version="1.0" encoding="utf-8"?><svg xmlns="http://www.w3.org/2000/svg" xmlns:xlink="http://www.w3.org/1999/xlink"><symbol id="27_icon" viewBox="0 0 286.3 287.4" xml:space="preserve" xmlns="http://www.w3.org/2000/svg"><style>.aast0{fill:#ce0b0b}.aast1{fill:#141414}</style><path class="aast0" d="M202.4 167.7c-13.3 0-26.1-3-37.9-9-1.2-.6-1.7-2.1-1.1-3.4.6-1.2 2.1-1.7 3.4-1.1 11.1 5.6 23.1 8.5 35.7 8.5 43.5 0 78.9-35.4 78.9-78.9S245.9 5 202.4 5s-78.9 35.4-78.9 78.9c0 12.6 2.9 24.6 8.5 35.7.6 1.2.1 2.7-1.1 3.4-1.2.6-2.7.1-3.4-1.1-6-11.8-9.1-24.6-9.1-38C118.4 37.7 156 0 202.3 0s83.9 37.6 83.9 83.9-37.5 83.8-83.8 83.8z"/><path class="aast1" d="M187.6 106.7c-.4 0-.9-.1-1.3-.3-.8-.4-1.3-1.3-1.3-2.2V63.1c0-.9.5-1.7 1.3-2.2.8-.4 1.7-.4 2.5 0l35.6 20.5c.8.4 1.3 1.3 1.3 2.2s-.5 1.7-1.3 2.2l-35.6 20.5c-.4.3-.8.4-1.2.4zm2.5-39.2v32.4l28.1-16.2-28.1-16.2zm10.5 219.9c-9.7 0-17.6-7.9-17.6-17.6s7.9-17.6 17.6-17.6 17.6 7.9 17.6 17.6-7.9 17.6-17.6 17.6zm0-30.1c-6.9 0-12.6 5.6-12.6 12.6 0 6.9 5.6 12.6 12.6 12.6s12.6-5.6 12.6-12.6-5.7-12.6-12.6-12.6z"/><path class="aast1" d="M215.7 272.4c-1.4 0-2.5-1.1-2.5-2.5v-86c0-1.4 1.1-2.5 2.5-2.5s2.5 1.1 2.5 2.5v86c0 1.3-1.1 2.5-2.5 2.5zm53 .1c-9.7 0-17.6-7.9-17.6-17.6s7.9-17.6 17.6-17.6 17.6 7.9 17.6 17.6-7.9 17.6-17.6 17.6zm0-30.1c-6.9 0-12.6 5.6-12.6 12.6 0 6.9 5.6 12.6 12.6 12.6 6.9 0 12.6-5.6 12.6-12.6s-5.7-12.6-12.6-12.6z"/><path class="aast1" d="M283.8 257.5c-1.4 0-2.5-1.1-2.5-2.5v-86c0-1.4 1.1-2.5 2.5-2.5s2.5 1.1 2.5 2.5v86c0 1.3-1.1 2.5-2.5 2.5z"/><path class="aast1" d="M215.7 186.4c-1.1 0-2.2-.8-2.4-2-.3-1.3.6-2.7 1.9-3l68.1-14.9c1.4-.3 2.7.6 3 1.9.3 1.3-.6 2.7-1.9 3l-68.1 14.9c-.3.1-.4.1-.6.1zm0 25.2c-1.1 0-2.2-.8-2.4-2-.3-1.3.6-2.7 1.9-3l68.1-14.9c1.4-.3 2.7.6 3 1.9s-.6 2.7-1.9 3l-68.1 14.9c-.3.1-.4.1-.6.1zM144 287.4H2.5c-1.4 0-2.5-1.1-2.5-2.5V143.4c0-1.4 1.1-2.5 2.5-2.5H144c1.4 0 2.5 1.1 2.5 2.5v141.5c0 1.4-1.1 2.5-2.5 2.5zm-139-5h136.5V145.9H5v136.5z"/><path class="aast1" d="M165.4 265h-20.8c-1.4 0-2.5-1.1-2.5-2.5s1.1-2.5 2.5-2.5h18.3V123.5H26.3v19.4c0 1.4-1.1 2.5-2.5 2.5s-2.5-1.1-2.5-2.5V121c0-1.4 1.1-2.5 2.5-2.5h141.5c1.4 0 2.5 1.1 2.5 2.5v141.5c.1 1.4-1 2.5-2.4 2.5z"/><path class="aast0" d="M116.8 248.8H27.6c-1.4 0-2.5-1.1-2.5-2.5V169c0-1.4 1.1-2.5 2.5-2.5h89.2c1.4 0 2.5 1.1 2.5 2.5v77.3c0 1.4-1.1 2.5-2.5 2.5zm-86.7-5h84.2v-72.3H30.1v72.3z"/><path class="aast0" d="M116.5 242.8c-.5 0-1-.2-1.4-.5l-29.6-21-12.4 6.8c-1.1.6-2.4.3-3.2-.6l-16.7-21.1-23 33.2c-.8 1.1-2.3 1.4-3.5.6-1.1-.8-1.4-2.3-.6-3.5l24.9-36c.5-.7 1.2-1.1 2-1.1s1.5.3 2 .9l17.5 22.1 11.9-6.6c.8-.5 1.9-.4 2.7.2l30.9 21.9c1.1.8 1.4 2.4.6 3.5-.5.8-1.3 1.2-2.1 1.2zm-25.8-35.5c-6.4 0-11.7-5.2-11.7-11.7S84.3 184 90.7 184s11.7 5.2 11.7 11.7-5.2 11.6-11.7 11.6zm0-18.3a6.7 6.7 0 100 13.4 6.7 6.7 0 000-13.4z"/><g><path class="aast1" d="M57.9 86.8H2.5c-1.4 0-2.5-1.1-2.5-2.5s1.1-2.5 2.5-2.5h55.4c1.4 0 2.5 1.1 2.5 2.5s-1.2 2.5-2.5 2.5zm38.8-63.5H2.5c-1.4 0-2.5-1.1-2.5-2.5s1.1-2.5 2.5-2.5h94.2c1.4 0 2.5 1.1 2.5 2.5s-1.1 2.5-2.5 2.5zm0 21.2H2.5C1.1 44.5 0 43.3 0 42s1.1-2.5 2.5-2.5h94.2c1.4 0 2.5 1.1 2.5 2.5s-1.1 2.5-2.5 2.5zm0 21.1H2.5c-1.4 0-2.5-1.1-2.5-2.5s1.1-2.5 2.5-2.5h94.2c1.4 0 2.5 1.1 2.5 2.5s-1.1 2.5-2.5 2.5z"/></g></symbol><symbol id="28_icon" viewBox="0 0 298.6 276.1" xml:space="preserve" xmlns="http://www.w3.org/2000/svg"><style>.abst0{fill:#ce0b0b}.abst1{fill:#141414}</style><path class="abst0" d="M220.4 248.3H32.3c-1.4 0-2.5-1.1-2.5-2.5v-92.5c0-1.4 1.1-2.5 2.5-2.5h188.1c1.4 0 2.5 1.1 2.5 2.5v92.5c0 1.4-1.2 2.5-2.5 2.5zm-185.6-5h183.1v-87.5H34.8v87.5z"/><path class="abst1" d="M97.6 51.6H2.5c-1.4 0-2.5-1.1-2.5-2.5V2.5C0 1.1 1.1 0 2.5 0h95.1c1.4 0 2.5 1.1 2.5 2.5v46.6c0 1.4-1.1 2.5-2.5 2.5zM5 46.6h90.1V5H5v41.6zm9.9 119.6H2.5c-1.4 0-2.5-1.1-2.5-2.5V68.6c0-1.4 1.1-2.5 2.5-2.5h95.1c1.4 0 2.5 1.1 2.5 2.5v65.9c0 1.4-1.1 2.5-2.5 2.5s-2.5-1.1-2.5-2.5V71.1H5v90.1h9.9c1.4 0 2.5 1.1 2.5 2.5s-1.2 2.5-2.5 2.5z"/><path class="abst1" d="M80.9 89.6H19.2c-1.4 0-2.5-1.1-2.5-2.5s1.1-2.5 2.5-2.5h61.7c1.4 0 2.5 1.1 2.5 2.5s-1.1 2.5-2.5 2.5zM261 136.9H116.5c-1.4 0-2.5-1.1-2.5-2.5V2.5c0-1.4 1.1-2.5 2.5-2.5H296c1.4 0 2.5 1.1 2.5 2.5v82.9c0 1.4-1.1 2.5-2.5 2.5s-2.5-1.1-2.5-2.5V5H119v126.9h142c1.4 0 2.5 1.1 2.5 2.5s-1.1 2.5-2.5 2.5z"/><path class="abst1" d="M295.5 41.8H117.1c-1.4 0-2.5-1.1-2.5-2.5s1.1-2.5 2.5-2.5h178.4c1.4 0 2.5 1.1 2.5 2.5s-1.1 2.5-2.5 2.5zm-17.6-18.5H134.7c-1.4 0-2.5-1.1-2.5-2.5s1.1-2.5 2.5-2.5H278c1.4 0 2.5 1.1 2.5 2.5s-1.2 2.5-2.6 2.5zm-17.7 252.8H117.3c-1.4 0-2.5-1.1-2.5-2.5v-13.3c0-1.4 1.1-2.5 2.5-2.5s2.5 1.1 2.5 2.5v10.8h140.4c1.4 0 2.5 1.1 2.5 2.5s-1.1 2.5-2.5 2.5z"/><path class="abst0" d="M126.3 202.1c-.9 0-1.8-.5-2.2-1.4-.6-1.2-.1-2.7 1.1-3.3l93.5-45.7c1.2-.6 2.7-.1 3.3 1.1.6 1.2.1 2.7-1.1 3.3l-93.5 45.7c-.3.2-.7.3-1.1.3z"/><path class="abst0" d="M126.2 202.1c-.4 0-.7-.1-1.1-.3l-93.5-45.7c-1.2-.6-1.8-2.1-1.1-3.3.6-1.2 2.1-1.8 3.3-1.1l93.5 45.7c1.2.6 1.8 2.1 1.1 3.3-.4.9-1.3 1.4-2.2 1.4z"/><path class="abst1" d="M296.1 255h-23.3c-1.4 0-2.5-1.1-2.5-2.5V103.7c0-1.4 1.1-2.5 2.5-2.5h23.3c1.4 0 2.5 1.1 2.5 2.5v148.9c0 1.3-1.2 2.4-2.5 2.4zm-20.8-5h18.3V106.2h-18.3V250z"/><path class="abst1" d="M284.4 276.1c-.9 0-1.7-.5-2.2-1.3l-11.6-21.1c-.7-1.2-.2-2.7 1-3.4 1.2-.7 2.7-.2 3.4 1l11.6 21.1c.7 1.2.2 2.7-1 3.4-.4.2-.8.3-1.2.3z"/><path class="abst1" d="M284.4 276.1c-.4 0-.8-.1-1.2-.3-1.2-.7-1.6-2.2-1-3.4l11.6-21.1c.7-1.2 2.2-1.6 3.4-1 1.2.7 1.6 2.2 1 3.4l-11.6 21.1c-.5.8-1.3 1.3-2.2 1.3z"/></symbol><symbol id="29_icon" viewBox="0 0 341.2 244.1" xml:space="preserve" xmlns="http://www.w3.org/2000/svg"><style>.acst0{fill:#141414}.acst1{fill:#ce0b0b}</style><path class="acst0" d="M302.8 244.1c-2 0-3.3-.1-3.5-.1-1.3-.1-2.4-1.2-2.4-2.5V44.9c0-1.4 1.1-2.5 2.5-2.5 10.3-.2 36.9-3.6 36.9-16.7 0-2.6-1-4.8-2.9-6.7-9-8.6-34-7.6-34.3-7.6h-198c-1.4 0-2.5-1.1-2.5-2.5s1.1-2.5 2.5-2.5h197.7c1.8-.1 27.5-1 37.9 9 3 2.8 4.5 6.3 4.5 10.3V225c0 4-1.5 7.5-4.5 10.3-8.3 7.9-26.3 8.8-33.9 8.8zm-.9-5.1c6.4 0 24.1-.5 31.4-7.4 2-1.9 3-4.1 3-6.7V36.7c-9 8.4-27.6 10.2-34.4 10.6V239z"/><path class="acst0" d="M261.7 185.2H134.9c-1.4 0-2.5-1.1-2.5-2.5V139c0-1.4 1.1-2.5 2.5-2.5h126.8c1.4 0 2.5 1.1 2.5 2.5v43.7c0 1.4-1.1 2.5-2.5 2.5zm-124.3-5h121.8v-38.7H137.4v38.7zM261.7 92h-104c-1.4 0-2.5-1.1-2.5-2.5s1.1-2.5 2.5-2.5h104c1.4 0 2.5 1.1 2.5 2.5s-1.1 2.5-2.5 2.5zm0-33.6h-104c-1.4 0-2.5-1.1-2.5-2.5s1.1-2.5 2.5-2.5h104c1.4 0 2.5 1.1 2.5 2.5s-1.1 2.5-2.5 2.5z"/><path class="acst1" d="M73.5 31.6c-1.4 0-2.5-1.1-2.5-2.5V2.5C71 1.1 72.1 0 73.5 0S76 1.1 76 2.5v26.6c0 1.4-1.1 2.5-2.5 2.5zm52.2 17.6c-.6 0-1.3-.2-1.8-.7-1-1-1-2.6 0-3.5l18.8-18.8c1-1 2.6-1 3.5 0 1 1 1 2.6 0 3.5l-18.8 18.8c-.5.5-1.1.7-1.7.7zm-104.4 0c-.6 0-1.3-.2-1.8-.7L.7 29.7c-1-1-1-2.6 0-3.5 1-1 2.6-1 3.5 0L23 45c1 1 1 2.6 0 3.5-.4.5-1.1.7-1.7.7zm73.4 109.2H52.2c-3.3 0-6-2.7-6-6V143c0-3.9-1.7-6.2-2.1-6.7-13.7-9.6-21.8-25.2-21.8-41.9 0-28.2 22.9-51.1 51.1-51.1s51.1 22.9 51.1 51.1c0 16.7-8.1 32.3-21.8 41.9-.5.6-2.1 2.9-2.1 6.7v9.4c.1 3.3-2.6 6-5.9 6zm-21.2-5h21.2c.5 0 1-.4 1-1V143c0-6.1 3-9.6 3.6-10.3l.3-.3.2-.2c12.4-8.6 19.9-22.8 19.9-37.9 0-25.4-20.7-46.1-46.1-46.1S27.3 69 27.3 94.4c0 15.1 7.4 29.3 19.9 37.9.1.1.2.1.2.2l.3.3c.6.6 3.6 4.2 3.6 10.3v9.4c0 .5.4 1 1 1h21.2zm21.8 19.8H51.6c-1.4 0-2.5-1.1-2.5-2.5s1.1-2.5 2.5-2.5h43.7c1.4 0 2.5 1.1 2.5 2.5s-1.1 2.5-2.5 2.5zm-8 12.4H59.7c-1.4 0-2.5-1.1-2.5-2.5s1.1-2.5 2.5-2.5h27.6c1.4 0 2.5 1.1 2.5 2.5s-1.1 2.5-2.5 2.5z"/><path class="acst0" d="M299 224.7H73.5c-1.4 0-2.5-1.1-2.5-2.5V198c0-1.4 1.1-2.5 2.5-2.5s2.5 1.1 2.5 2.5v21.7h223c1.4 0 2.5 1.1 2.5 2.5s-1.1 2.5-2.5 2.5z"/></symbol><symbol id="30_icon" viewBox="0 0 319 267.3" xml:space="preserve" xmlns="http://www.w3.org/2000/svg"><style>.adst0{fill:#141414}.adst1{fill:#ce0b0b}</style><path class="adst0" d="M303.6 267.3H63.9c-8.5 0-15.4-6.9-15.4-15.4v-16.2c0-1.4 1.1-2.5 2.5-2.5s2.5 1.1 2.5 2.5v16.2c0 5.7 4.7 10.4 10.4 10.4h239.7c5.7 0 10.4-4.7 10.4-10.4V15.4C314 9.7 309.3 5 303.6 5H63.9c-5.7 0-10.4 4.7-10.4 10.4V154c0 1.4-1.1 2.5-2.5 2.5s-2.5-1.1-2.5-2.5V15.4C48.5 6.9 55.4 0 63.9 0h239.7c8.5 0 15.4 6.9 15.4 15.4v236.5c0 8.5-6.9 15.4-15.4 15.4z"/><path class="adst0" d="M273.8 124.9h-131c-1.4 0-2.5-1.1-2.5-2.5s1.1-2.5 2.5-2.5h131c5.7 0 10.4-4.7 10.4-10.4V84c0-5.7-4.7-10.4-10.4-10.4H93.7c-5.7 0-10.4 4.7-10.4 10.4v25.5c0 1 .1 2 .4 2.9.4 1.3-.4 2.7-1.7 3.1-1.3.4-2.7-.4-3.1-1.7-.4-1.4-.6-2.8-.6-4.3V84c0-8.5 6.9-15.4 15.4-15.4h180.2c8.5 0 15.4 6.9 15.4 15.4v25.5c0 8.4-7 15.4-15.5 15.4zm42.4-69.8H51.3c-1.4 0-2.5-1.1-2.5-2.5s1.1-2.5 2.5-2.5h264.8c1.4 0 2.5 1.1 2.5 2.5s-1.1 2.5-2.4 2.5zM81.5 35.5h-1c-3.6 0-6.6-3-6.6-6.6v-1c0-3.6 3-6.6 6.6-6.6h1c3.6 0 6.6 3 6.6 6.6v1c0 3.6-3 6.6-6.6 6.6zm31.5 0h-1c-3.6 0-6.6-3-6.6-6.6v-1c0-3.6 3-6.6 6.6-6.6h1c3.6 0 6.6 3 6.6 6.6v1c0 3.6-3 6.6-6.6 6.6zm31.6 0h-1c-3.6 0-6.6-3-6.6-6.6v-1c0-3.6 3-6.6 6.6-6.6h1c3.6 0 6.6 3 6.6 6.6v1c0 3.6-3 6.6-6.6 6.6zM288.3 165.6h-88.7c-1.4 0-2.5-1.1-2.5-2.5s1.1-2.5 2.5-2.5h88.7c1.4 0 2.5 1.1 2.5 2.5s-1.1 2.5-2.5 2.5zm0 31.8h-88.7c-1.4 0-2.5-1.1-2.5-2.5s1.1-2.5 2.5-2.5h88.7c1.4 0 2.5 1.1 2.5 2.5s-1.1 2.5-2.5 2.5zm0 31.8h-88.7c-1.4 0-2.5-1.1-2.5-2.5s1.1-2.5 2.5-2.5h88.7c1.4 0 2.5 1.1 2.5 2.5s-1.1 2.5-2.5 2.5zM167.8 165.6h-25c-1.4 0-2.5-1.1-2.5-2.5s1.1-2.5 2.5-2.5h25c1.4 0 2.5 1.1 2.5 2.5s-1.1 2.5-2.5 2.5zm0 31.8h-67.4c-1.4 0-2.5-1.1-2.5-2.5s1.1-2.5 2.5-2.5h67.4c1.4 0 2.5 1.1 2.5 2.5s-1.1 2.5-2.5 2.5zm0 31.8H79.2c-1.4 0-2.5-1.1-2.5-2.5s1.1-2.5 2.5-2.5h88.7c1.4 0 2.5 1.1 2.5 2.5s-1.2 2.5-2.6 2.5z"/><g><path class="adst1" d="M18.1 242.9c-5.8 0-10-2.6-12.8-5.4C1.8 233.9 0 229.7 0 225c0-12.9 13.4-26.2 20.6-33.4l.8-.8c4.8-4.8 17.7-14.1 30.2-23 9.6-6.9 18.7-13.4 21.2-15.9 5.2-5.2 7.4-13.6 7.5-13.7 0-.1 0-.1.1-.2 0-4.5 1.3-10.2 6.3-15.2 10-10 41.6-13 44.4-13.3h.6c1.4.1 2.4 1.3 2.3 2.7-.1 1.4-3 34.3-13.3 44.6-5 5-10.7 6.3-15.2 6.3-.1 0-.2.1-.2.1-.1 0-8.4 2.3-13.6 7.5-2.5 2.5-9 11.6-15.9 21.2-9 12.5-18.2 25.4-23 30.2-3.8 3.8-11.7 11.7-20.4 16.5-5.7 3.1-10.3 4.3-14.3 4.3zm-9.2-9c5.2 5.2 12 5.3 20.9.3 8.1-4.5 15.6-12.1 19.3-15.7 4.5-4.5 14.1-17.8 22.5-29.6 7.3-10.2 13.7-19.1 16.4-21.8 2.5-2.5 5.6-4.4 8.3-5.8-3.2-1.3-6.2-3.1-8.5-5.4-.1 0-.1-.1-.1-.1-2.3-2.3-4.3-5.4-5.5-8.6-1.4 2.8-3.3 5.8-5.8 8.3-2.8 2.8-11.6 9.1-21.8 16.4-11.8 8.4-25.1 18-29.6 22.5l-.8.8C17.9 201.4 5 214.2 5 225c0 3.4 1.3 6.3 3.9 8.9zm82.2-81.8l.1.1c3 3 7.5 5.2 11.9 5.7 3.7.5 9.2.1 14-4.7 6.7-6.7 10.3-27.8 11.5-38.5-10.6 1.2-31.7 4.8-38.5 11.5-4.8 4.8-5.2 10.2-4.7 14 .7 4.4 2.8 8.9 5.7 11.9z"/><path class="adst1" d="M76.1 189c-.6 0-1.3-.2-1.8-.7l-18.8-18.8c-1-1-1-2.6 0-3.5 1-1 2.6-1 3.5 0l18.8 18.8c1 1 1 2.6 0 3.5-.4.5-1.1.7-1.7.7zm5.1-7.5c-.6 0-1.3-.2-1.8-.7L63 164.4c-1-1-1-2.6 0-3.5 1-1 2.6-1 3.5 0L83 177.3c1 1 1 2.6 0 3.5-.5.5-1.2.7-1.8.7z"/></g></symbol><symbol id="31_icon" viewBox="0 0 286.9 279.4" xml:space="preserve" xmlns="http://www.w3.org/2000/svg"><style>.aest0{fill:#141414}</style><path class="aest0" d="M284.4 203h-40.3c-1.4 0-2.5-1.1-2.5-2.5s1.1-2.5 2.5-2.5h37.8V5H5v193h76.3c1.4 0 2.5 1.1 2.5 2.5s-1.1 2.5-2.5 2.5H2.5c-1.4 0-2.5-1.1-2.5-2.5V2.5C0 1.1 1.1 0 2.5 0h281.9c1.4 0 2.5 1.1 2.5 2.5v198c0 1.3-1.1 2.5-2.5 2.5z"/><path d="M200.9 158.8H173c-1.4 0-2.5-1.1-2.5-2.5s1.1-2.5 2.5-2.5h25.4V49.1H88.6v104.7H114c1.4 0 2.5 1.1 2.5 2.5s-1.1 2.5-2.5 2.5H86.1c-1.4 0-2.5-1.1-2.5-2.5V46.6c0-1.4 1.1-2.5 2.5-2.5h114.8c1.4 0 2.5 1.1 2.5 2.5v109.7c0 1.4-1.1 2.5-2.5 2.5z"/><path class="aest0" d="M229 124.9c-.6 0-1.3-.2-1.8-.7-1-1-1-2.6 0-3.5l19.3-19.3-19-19c-1-1-1-2.6 0-3.5 1-1 2.6-1 3.5 0l20.8 20.8c.5.5.7 1.1.7 1.8s-.3 1.3-.7 1.8l-21.1 21.1c-.4.3-1 .5-1.7.5zm-166.7 0c-.6 0-1.3-.2-1.8-.7l-20.8-20.8c-1-1-1-2.6 0-3.5l21.1-21.1c1-1 2.6-1 3.5 0 1 1 1 2.6 0 3.5L45 101.6l19 19c1 1 1 2.6 0 3.5-.4.6-1 .8-1.7.8zm118.9 154.5c-4.1 0-8.2 0-12.2-.1h-8.3c-1.9 0-3.8-.3-5.1-.6-4.9-.9-9.7-2.8-14.8-5.9-3.2-1.9-6.8-4.3-9.8-7.6-11.4-12.7-22.9-25.7-33.1-37.2-4.1-4.6-5.5-10-4.2-15.8 1.6-7 6.1-11.7 13-13.4 6.8-1.7 12.9.2 17.8 5.5.3.4.7.7 1 1.1v-63c.1-7.9 5.3-14.6 13-16.8.7-.2 1.3-.3 1.9-.5.3-.1.5-.1.8-.2.2 0 .4-.1.5-.1h3c.3 0 .6 0 .8.1h.1c8.9 1.1 15.6 8.8 15.5 18.1-.1 7.5 0 15.2 0 22.6v9c3.7-1.2 7.5-1.1 11.2.2 4.1 1.4 7.3 4.1 9.6 7.9 4.7-2.1 9.5-2.1 14.2 0 4.6 2 7.8 5.4 9.6 10 3.3-1.2 6.7-1.4 10.2-.6 8.2 2 13.7 9.1 13.7 17.8V247c0 6.8-2.1 13-6.3 18.3-7 8.9-16.4 13.6-28.1 13.8-4.5.2-9.3.3-14 .3zm-69.7-76.2c-1.1 0-2.3.2-3.6.5-5 1.3-8.2 4.6-9.4 9.7-1 4.2.1 8 3.1 11.4 10.2 11.5 21.7 24.5 33.1 37.2 2.5 2.8 5.8 4.9 8.6 6.6 4.6 2.7 8.9 4.4 13.2 5.2 1.7.3 3 .5 4.2.5h8.3c8.6.1 17.6.1 26.3-.1 10.1-.2 18.2-4.2 24.2-11.9 3.4-4.4 5.2-9.5 5.2-15.2v-37c0-6.4-3.9-11.5-9.9-12.9-3.1-.7-5.9-.4-8.8 1.1l-.6.3c-.7.4-1.5.4-2.2.1-.7-.3-1.2-1-1.4-1.7-1.1-4.6-3.6-7.7-7.6-9.5-4-1.7-8-1.4-12.1 1-.6.4-1.4.4-2 .2-.7-.2-1.2-.7-1.5-1.4-1.6-3.8-4.2-6.2-7.8-7.5-3.6-1.3-7.2-.9-10.8 1.1-.8.4-1.7.4-2.5 0-.8-.5-1.2-1.3-1.2-2.2v-35.6c.1-7.8-5.8-12.6-11.3-13.1-.2 0-.4-.1-.5-.1h-2.3c-.2 0-.4.1-.6.1-.5.1-1.1.2-1.6.4-5.5 1.6-9.3 6.4-9.3 12-.1 6.8-.1 13.7 0 20.4v49c0 .7-.4 1.4-.9 1.8l-.3.2c-.6.5-1.3.7-2.1.5-.7-.2-1.4-.6-1.7-1.3 0-.1-.1-.2-.1-.3l-.9-1c-1.2-1.4-2.4-2.8-3.6-4.1-3-2.9-6.1-4.4-9.6-4.4zm14.1 9.8zm19.9-88z"/></symbol><symbol id="32_icon" viewBox="0 0 389.5 395.7" xml:space="preserve" xmlns="http://www.w3.org/2000/svg"><style>.afst0{fill:#141414}.afst1{fill:#ce0b0b}</style><path class="afst0" d="M194.3 268.4c-39.5 0-71.6-32.1-71.6-71.6 0-39.5 32.1-71.6 71.6-71.6s71.6 32.1 71.6 71.6c-.1 39.5-32.2 71.6-71.6 71.6zm0-138.1c-36.7 0-66.6 29.9-66.6 66.6 0 36.7 29.9 66.6 66.6 66.6s66.6-29.9 66.6-66.6c-.1-36.7-29.9-66.6-66.6-66.6z"/><path class="afst0" d="M150.6 199.4c-1.4 0-2.5-1.1-2.5-2.5 0-25.5 20.7-46.2 46.2-46.2 1.4 0 2.5 1.1 2.5 2.5s-1.1 2.5-2.5 2.5c-22.7 0-41.2 18.5-41.2 41.2 0 1.3-1.1 2.5-2.5 2.5z"/><path class="afst0" d="M195.2 308.6h-1c-57.8-.3-107.3-29.9-138.6-54.7-33.5-26.4-54-53.3-55-54.5-.1-.1-.2-.3-.3-.4-.2-.4-.3-.7-.3-1.1 0-.4.1-.8.3-1.1.1-.1.2-.3.3-.4 1-1.3 21.5-28.1 55-54.5 31.4-24.8 80.8-54.3 138.6-54.7h1.2c57.8.3 107.3 29.9 138.6 54.7 33.4 26.4 53.9 53.2 55 54.5.1.2.2.3.3.5.2.3.2.7.2 1 0 .4-.1.8-.3 1.2-.1.1-.2.3-.3.4-1 1.3-21.5 28.1-55 54.5-31.4 24.8-80.8 54.3-138.6 54.7 0-.1-.1-.1-.1-.1zM5.7 197.9c4.8 6 24 29.3 53.1 52.3 30.8 24.3 79.4 53.4 136 53.5 56.6-.2 105.2-29.2 136.1-53.6 29.1-23 48.2-46.1 53-52.2-4.8-6-24-29.3-53.1-52.3-30.8-24.3-79.4-53.4-136-53.5-56.6.2-105.2 29.2-136 53.5-29.2 23-48.3 46.2-53.1 52.3z"/><path class="afst1" d="M377.7 120.3c-.8 0-1.6-.4-2.1-1.1L347 76.9c-7.7 7.9-19.7 10.1-29.8 5-12.6-6.3-17.6-21.7-11.3-34.3.9-1.8 2-3.5 3.3-5l-40.9-24.2c-3.3 10.5-13 17.8-24.3 17.8-14.1 0-25.5-11.4-25.5-25.5 0-1.9.2-3.9.6-5.7h-48.8c.4 1.9.6 3.8.6 5.7 0 14.1-11.4 25.5-25.5 25.5-11.3 0-21-7.3-24.3-17.8L80.2 42.7c1.3 1.5 2.4 3.2 3.3 5 3.1 6.1 3.6 13 1.5 19.5S78.3 78.9 72.3 82c-10.1 5.1-22.1 2.9-29.8-5l-28.6 42.2c-.8 1.1-2.3 1.4-3.5.7-1.1-.8-1.4-2.3-.7-3.5l30.4-44.9c.1-.1.2-.3.3-.4.2-.2.4-.4.7-.5.3-.2.7-.3 1.1-.3.4 0 .7.1 1.1.2.3.1.5.3.7.5.1.1.2.2.3.4C50.2 79.4 61 82 70 77.5c4.9-2.5 8.5-6.7 10.2-11.9 1.7-5.2 1.3-10.8-1.2-15.7-1.1-2.2-2.6-4.2-4.4-5.8-.2-.2-.5-.4-.6-.7-.7-1.2-.3-2.7.9-3.4l46.5-27.5c.1-.1.3-.2.5-.2.3-.1.6-.1.9-.2.4 0 .7.1 1 .2.3.2.6.4.9.7.2.2.3.5.4.7.1.2.1.3.1.5 1.7 9.9 10.2 17 20.2 17 11.3 0 20.5-9.2 20.5-20.5 0-2.5-.4-5-1.3-7.3-.1-.2-.1-.3-.1-.5-.1-.3-.1-.6 0-.9.1-.4.2-.7.4-1 .2-.3.5-.5.8-.7.2-.1.5-.3.8-.3H223c.3.1.6.2.8.3.3.2.6.4.8.7.2.3.3.6.4 1v.9c0 .2-.1.3-.1.5-.9 2.3-1.3 4.8-1.3 7.3 0 11.3 9.2 20.5 20.5 20.5 10 0 18.5-7.2 20.2-17 0-.2.1-.3.1-.5.1-.3.2-.5.4-.7.2-.3.5-.5.9-.7.3-.2.7-.2 1.1-.2.3 0 .6 0 .9.2.2.1.3.1.5.2L314.5 40c1.2.7 1.6 2.2.9 3.4-.2.3-.4.5-.6.7-1.8 1.7-3.3 3.6-4.4 5.8-5.1 10.1-1 22.5 9.1 27.5 9 4.5 19.8 2 25.7-6.1.1-.1.2-.3.3-.4.2-.2.5-.4.7-.5.3-.2.7-.2 1.1-.2.4 0 .7.1 1.1.3.3.1.5.3.7.5.1.1.2.2.3.4l30.4 44.9c.8 1.1.5 2.7-.7 3.5-.5.3-1 .5-1.4.5z"/><circle class="afst0" cx="194.7" cy="48.2" r="6"/><circle class="afst0" cx="269" cy="66.3" r="6"/><circle class="afst0" cx="120.4" cy="66.3" r="6"/><path class="afst1" d="M222.5 395.7h-56c-.3-.1-.6-.2-.8-.3-.3-.2-.6-.4-.8-.7-.2-.3-.3-.6-.4-1v-.9c0-.2.1-.3.1-.5.9-2.3 1.3-4.8 1.3-7.3 0-11.3-9.2-20.5-20.5-20.5-10 0-18.5 7.2-20.2 17 0 .2-.1.3-.1.5-.1.3-.2.5-.4.7-.2.3-.5.5-.9.7-.3.2-.7.2-1.1.2-.3 0-.6-.1-.9-.2-.2-.1-.3-.1-.5-.2l-46.5-27.5c-1.2-.7-1.6-2.2-.9-3.4.2-.3.4-.5.6-.7 1.8-1.7 3.3-3.6 4.4-5.8 2.5-4.9 2.9-10.5 1.2-15.7-1.7-5.2-5.4-9.4-10.2-11.9-9-4.5-19.8-2-25.7 6.1-.1.1-.2.3-.3.4-.2.2-.5.4-.7.5-.3.2-.7.2-1.1.2-.4 0-.7-.1-1.1-.3-.3-.1-.5-.3-.7-.5-.1-.1-.2-.2-.3-.4L9.7 279.3c-.8-1.1-.5-2.7.7-3.5 1.1-.8 2.7-.5 3.5.7l28.6 42.3c7.7-7.9 19.7-10.1 29.8-5 6.1 3.1 10.6 8.3 12.7 14.8 2.1 6.5 1.6 13.4-1.5 19.5-.9 1.8-2 3.5-3.3 5l40.9 24.2c3.3-10.5 13-17.8 24.3-17.8 14.1 0 25.5 11.4 25.5 25.5 0 1.9-.2 3.9-.6 5.7h48.9c-.4-1.9-.6-3.8-.6-5.7 0-14.1 11.4-25.5 25.5-25.5 11.3 0 21 7.3 24.3 17.8l40.9-24.2c-1.3-1.5-2.4-3.2-3.3-5-6.3-12.6-1.3-27.9 11.3-34.3 10.1-5.1 22.1-2.9 29.8 5l28.6-42.3c.8-1.1 2.3-1.4 3.5-.7 1.1.8 1.4 2.3.7 3.5l-30.4 44.9c-.1.1-.2.3-.3.4-.2.2-.4.4-.7.5-.3.2-.7.3-1.1.3-.4 0-.7-.1-1.1-.2-.3-.1-.5-.3-.7-.5-.1-.1-.2-.2-.3-.4-5.9-8.1-16.8-10.6-25.7-6.1-4.9 2.5-8.5 6.7-10.2 11.9s-1.3 10.8 1.2 15.7c1.1 2.2 2.6 4.2 4.4 5.8.2.2.5.4.6.7.7 1.2.3 2.7-.9 3.4L268 383.3c-.1.1-.3.2-.5.2-.3.1-.6.2-.9.1-.4 0-.7-.1-1.1-.2-.3-.1-.6-.4-.8-.6-.2-.2-.3-.5-.4-.8-.1-.2-.1-.3-.1-.5-1.7-9.9-10.2-17-20.2-17-11.3 0-20.5 9.2-20.5 20.5 0 2.5.4 5 1.3 7.3.1.2.1.3.1.5.1.3.1.6 0 .9-.1.4-.2.7-.4 1-.2.3-.5.5-.8.7-.2.1-.5.3-.8.3h-.4z"/><circle class="afst0" cx="194.7" cy="347.5" r="6"/><circle class="afst0" cx="269" cy="329.4" r="6"/><circle class="afst0" cx="120.4" cy="329.4" r="6"/><path class="afst0" d="M194.7 308.6C133.6 308.6 84 258.9 84 197.9S133.6 87.1 194.7 87.1s110.8 49.7 110.8 110.8-49.7 110.7-110.8 110.7zm0-216.5C136.4 92.1 89 139.5 89 197.9s47.4 105.8 105.8 105.8c58.3 0 105.8-47.4 105.8-105.8S253 92.1 194.7 92.1z"/></symbol><symbol id="49_icon" viewBox="0 0 304 308.6" xml:space="preserve" xmlns="http://www.w3.org/2000/svg"><style>.agst0{fill:#141414}.agst1{fill:#ce0b0b}</style><path class="agst0" d="M156.9 291.8c-1.4 0-2.5-1.1-2.5-2.5V13.9c0-1.4 1.1-2.5 2.5-2.5s2.5 1.1 2.5 2.5v275.4c0 1.4-1.1 2.5-2.5 2.5z"/><path class="agst0" d="M2.5 90.5c-.6 0-1.3-.2-1.8-.7-1-1-1-2.6 0-3.5L35 51.9c.5-.5 1.1-.7 1.8-.7h120.1c1.4 0 2.5 1.1 2.5 2.5s-1.1 2.5-2.5 2.5H37.8L4.3 89.8c-.5.4-1.2.7-1.8.7z"/><path class="agst0" d="M156.9 124.8H36.8c-.7 0-1.3-.3-1.8-.7L.7 89.8c-1-1-1-2.6 0-3.5 1-1 2.6-1 3.5 0l33.6 33.6h119.1c1.4 0 2.5 1.1 2.5 2.5s-1.1 2.4-2.5 2.4z"/><path class="agst0" d="M267.6 185.7c-.4 0-.7-.1-1.1-.2l-110.6-53.2c-1.2-.6-1.8-2.1-1.2-3.3.6-1.2 2.1-1.8 3.3-1.2l109.2 52.5 29-24.2-17.7-42L155.9 56c-1.2-.6-1.8-2.1-1.2-3.3.6-1.2 2.1-1.8 3.3-1.2L281.5 110c.6.3 1 .7 1.2 1.3l18.8 44.6c.4 1 .1 2.2-.7 2.9l-31.7 26.4c-.4.3-1 .5-1.5.5z"/><path class="agst1" d="M255.2 89c-.8 0-1.6-.4-2.1-1.1-.8-1.2-.4-2.7.7-3.5l28.5-18.7 16-41.9-30-18.4L176 52.5c-1.2.6-2.7.1-3.4-1.1-.6-1.2-.1-2.7 1.1-3.4L267.2.2c.8-.4 1.7-.4 2.4.1l33.1 20.3c1 .6 1.5 1.9 1 3l-17 44.6c-.2.5-.5.9-1 1.2l-29.2 19.1c-.3.4-.8.5-1.3.5z"/><path class="agst0" d="M145.7 115.4H40.3c-.7 0-1.3-.3-1.8-.8L14.8 90.5c-1-1-.9-2.6 0-3.5 1-1 2.6-.9 3.5 0l23 23.5h104.3c1.4 0 2.5 1.1 2.5 2.5s-1.1 2.4-2.4 2.4zm121.1 58.3c-.4 0-.7-.1-1.1-.2L165 125.7c-1.2-.6-1.8-2.1-1.2-3.3.6-1.2 2.1-1.8 3.3-1.2l99.3 47 19.8-16.5c1.1-.9 2.6-.7 3.5.3.9 1.1.7 2.6-.3 3.5l-21 17.5c-.4.5-1 .7-1.6.7z"/><path class="agst1" d="M245 83.8c-.8 0-1.6-.4-2.1-1.1-.7-1.2-.4-2.7.7-3.5l31.8-20.5 12.1-31.9c.5-1.3 1.9-1.9 3.2-1.5 1.3.5 1.9 1.9 1.5 3.2l-12.4 32.7c-.2.5-.5.9-1 1.2l-32.5 21c-.4.3-.8.4-1.3.4z"/><path class="agst0" d="M156.9 308.6c-29.3 0-60.4-7.4-60.4-21 0-8.7 13.2-15.8 35.2-19.2 1.4-.2 2.6.7 2.8 2.1s-.7 2.6-2.1 2.8c-21.3 3.2-31 9.7-31 14.3 0 7.6 23.7 16 55.4 16s55.4-8.4 55.4-16c0-4.7-9.9-11.2-31.6-14.3-1.4-.2-2.3-1.5-2.1-2.8.2-1.4 1.5-2.3 2.8-2.1 22.5 3.3 35.9 10.5 35.9 19.3.1 13.5-31 20.9-60.3 20.9z"/></symbol><symbol id="50_icon" viewBox="0 0 323.5 308.6" xml:space="preserve" xmlns="http://www.w3.org/2000/svg"><style>.ahst0{fill:#141414}.ahst1{fill:#ce0b0b}</style><path class="ahst0" d="M154.3 276.4c-67.4 0-122.2-54.8-122.2-122.2S86.9 32 154.3 32c5.4 0 10.8.4 16.1 1.1 1.4.2 2.3 1.4 2.2 2.8s-1.4 2.3-2.8 2.2c-5.1-.7-10.3-1-15.4-1-64.6 0-117.2 52.6-117.2 117.2s52.6 117.2 117.2 117.2 117.2-52.6 117.2-117.2c0-19.7-5-39.2-14.5-56.4-.7-1.2-.2-2.7 1-3.4 1.2-.7 2.7-.2 3.4 1 9.9 17.9 15.1 38.3 15.1 58.8-.2 67.3-55 122.1-122.3 122.1zm87.6-201.1c-.7 0-1.3-.3-1.8-.8-4-4.3-8.4-8.4-13.1-12.1-1.1-.9-1.3-2.4-.4-3.5s2.4-1.3 3.5-.4c4.8 3.8 9.4 8.1 13.6 12.6.9 1 .9 2.6-.1 3.5-.4.5-1.1.7-1.7.7zm-33.4-25.2c-.4 0-.8-.1-1.1-.3-3.8-1.9-7.8-3.7-11.8-5.2-1.3-.5-1.9-1.9-1.5-3.2s1.9-1.9 3.2-1.5c4.2 1.6 8.3 3.4 12.3 5.4 1.2.6 1.7 2.1 1.1 3.4-.4.9-1.3 1.4-2.2 1.4z"/><path class="ahst0" d="M154.3 308.6C69.2 308.6 0 239.4 0 154.3 0 69.2 69.2 0 154.3 0c42.9 0 82.7 17.2 112.2 48.4.9 1 .9 2.6-.1 3.5s-2.6.9-3.5-.1C234.3 21.6 195.8 5 154.3 5 72 5 5 72 5 154.3s67 149.3 149.3 149.3 149.3-67 149.3-149.3c0-28.4-8-56-23.1-79.8-.7-1.2-.4-2.7.8-3.4 1.2-.7 2.7-.4 3.5.8 15.6 24.6 23.9 53.2 23.9 82.5-.1 85-69.3 154.2-154.4 154.2z"/><path class="ahst1" d="M152.6 205.5c-.6 0-1.3-.2-1.8-.7-1-1-1-2.6 0-3.5L317.5 34.5l-16.8-16.8-146.4 146.5c-1 1-2.6 1-3.5 0-1-1-1-2.6 0-3.5L299 12.5c.9-.9 2.6-.9 3.5 0l20.3 20.3c1 1 1 2.6 0 3.5L154.3 204.8c-.5.5-1.1.7-1.7.7z"/><path class="ahst1" d="M152.6 205.5c-.6 0-1.3-.2-1.8-.7L71 125c-1-1-1-2.6 0-3.5l20.3-20.3c1-1 2.6-1 3.5 0l59.5 59.5c1 1 1 2.6 0 3.5-1 1-2.6 1-3.5 0l-57.7-57.7-16.8 16.8 78 78c1 1 1 2.6 0 3.5-.5.5-1.1.7-1.7.7z"/><path class="ahst0" d="M152.6 84.7c-1.4 0-2.5-1.1-2.5-2.5V66.1c0-1.4 1.1-2.5 2.5-2.5s2.5 1.1 2.5 2.5v16.1c0 1.3-1.2 2.5-2.5 2.5zm0 163.7c-1.4 0-2.5-1.1-2.5-2.5v-16.1c0-1.4 1.1-2.5 2.5-2.5s2.5 1.1 2.5 2.5v16.1c0 1.4-1.2 2.5-2.5 2.5zm-32.9-7.2c-.3 0-.6 0-.9-.2-1.3-.5-2-1.9-1.5-3.2l5.5-15.1c.5-1.3 1.9-2 3.2-1.5 1.3.5 2 1.9 1.5 3.2l-5.5 15.1c-.3 1-1.3 1.7-2.3 1.7zm-28.6-18.6c-.6 0-1.3-.2-1.8-.7-1-1-1-2.6 0-3.5l11.4-11.4c1-1 2.6-1 3.5 0 1 1 1 2.6 0 3.5l-11.4 11.4c-.4.4-1 .7-1.7.7zm153.7-65.8h-16.1c-1.4 0-2.5-1.1-2.5-2.5s1.1-2.5 2.5-2.5h16.1c1.4 0 2.5 1.1 2.5 2.5s-1.1 2.5-2.5 2.5zm-167.8 0H60.9c-1.4 0-2.5-1.1-2.5-2.5s1.1-2.5 2.5-2.5H77c1.4 0 2.5 1.1 2.5 2.5s-1.1 2.5-2.5 2.5zm-6.7 37c-.9 0-1.9-.5-2.3-1.5-.6-1.3 0-2.7 1.2-3.3l14.6-6.7c1.3-.6 2.7 0 3.3 1.2.6 1.3 0 2.7-1.2 3.3l-14.6 6.7c-.3.3-.6.3-1 .3z"/></symbol><symbol id="51_icon" viewBox="0 0 323.8 252.5" xml:space="preserve" xmlns="http://www.w3.org/2000/svg"><style>.aist0{fill:#141414}</style><circle class="aist0" cx="27.8" cy="28.1" r="3"/><circle class="aist0" cx="37" cy="28.1" r="3"/><circle class="aist0" cx="46.3" cy="28.1" r="3"/><path class="aist0" d="M163.4 227.7H12.2c-6.7 0-12.2-5.5-12.2-12.2V12.2C0 5.5 5.5 0 12.2 0h272.4c6.7 0 12.2 5.5 12.2 12.2v84.4c0 1.4-1.1 2.5-2.5 2.5s-2.5-1.1-2.5-2.5V12.2c0-4-3.2-7.2-7.2-7.2H12.2C8.2 5 5 8.2 5 12.2v203.3c0 4 3.2 7.2 7.2 7.2h151.2c1.4 0 2.5 1.1 2.5 2.5s-1.1 2.5-2.5 2.5z"/><path class="aist0" d="M293.7 56H3.2C1.8 56 .7 54.9.7 53.5S1.8 51 3.2 51h290.5c1.4 0 2.5 1.1 2.5 2.5S295 56 293.7 56z"/><path d="M267.8 30.6H77.1c-1.4 0-2.5-1.1-2.5-2.5s1.1-2.5 2.5-2.5h190.7c1.4 0 2.5 1.1 2.5 2.5s-1.1 2.5-2.5 2.5zM262.8 252.5c-.4 0-.9-.1-1.2-.3-.6-.3-1-.9-1.2-1.6-3-11.8-10-17.7-21.2-17.9-4.6-.1-9 1.6-13 5.2-3.5 3.1-5.8 7.2-6.7 12.2-.2 1.2-1.3 2-2.5 2-8.1 0-28.2-12-35.2-19.8-.9-1-.8-2.5.1-3.5 8.8-8.6 10.3-17.7 4.4-27.6-2.3-4-6-6.8-11-8.3-4.4-1.4-9-1.2-14 .5-.7.2-1.4.2-2-.2-.6-.3-1.1-.9-1.2-1.6-3.2-13.4-3.2-26.4 0-39.7.2-.7.6-1.2 1.1-1.6.6-.3 1.3-.4 1.9-.3 11.4 2.9 20 .3 25.3-7.9 2.8-4.4 3.9-9.3 3-14.5-.8-4.9-3.3-9.3-7.5-12.8-.5-.4-.8-1-.9-1.7s.2-1.3.6-1.8c7-8.1 27.4-19.7 35.2-20 1.2 0 2.3.8 2.5 2 1.2 6.2 4.2 10.8 9.1 14.1 3.6 2.4 7.5 3.5 11.7 3.4 9.9-.3 16.5-6 20.1-17.6.3-1 1.2-1.7 2.2-1.8 7.6-.5 29.7 12.7 35.5 20 .8 1.1.7 2.6-.4 3.5-4.8 4-7.4 9-7.8 15.1-.3 4 .7 7.9 2.9 11.6 2.6 4.3 6.2 7.2 10.9 8.9 4.6 1.6 9.3 1.5 14.4-.4.7-.2 1.4-.2 2 .2.6.3 1.1.9 1.2 1.6 3.2 13.3 3.2 26.3.1 39.7-.2.7-.6 1.2-1.2 1.6-.6.3-1.3.4-1.9.3-12.4-3.4-21-.1-26.3 10.1-4.7 9.1-2.8 17.4 5.7 25.6.5.5.8 1.1.8 1.8s-.3 1.3-.8 1.8c-9.9 9.4-21.1 15.9-34.2 19.8 0-.2-.2-.1-.5-.1zm-75.7-21.8c7 6.6 21.4 14.6 27.9 16.2 1.4-5.1 4-9.3 7.8-12.7 4.7-4.2 10.2-6.4 16-6.4h.4c12.8.2 21.3 6.7 25.3 19.1 10.5-3.5 19.7-8.8 27.9-16.1-8.4-9.1-10.1-19.3-4.8-29.6 6-11.6 16.1-16.1 29.5-13.2 2.2-10.9 2.2-21.5 0-32.3-5.2 1.4-10.2 1.2-15.1-.4-5.8-2-10.4-5.7-13.6-11-2.7-4.5-3.9-9.4-3.6-14.5.4-6.6 3-12.2 7.6-16.8-6.4-6.3-21.8-14.9-28-16.2-4.4 12.4-12.5 18.9-24.1 19.2-5.2.1-10.2-1.3-14.6-4.2-5.3-3.5-8.9-8.6-10.7-14.9-6.8 1.7-21.1 9.6-27.9 16.2 4 4 6.4 8.7 7.3 14.1 1 6.5-.2 12.6-3.8 18-6.1 9.4-15.8 13-28.2 10.6-2.2 10.9-2.2 21.5 0 32.4 5.1-1.3 9.8-1.2 14.5.3 6.2 2 10.8 5.5 13.8 10.6 6.5 10.8 5.3 21.8-3.6 31.6zm52.7-33.1c-14.3 0-25.9-11.6-25.9-25.9 0-14.2 11.6-25.8 25.8-25.9h.2c6.7 0 13.3 2.7 18.1 7.5 4.9 4.8 7.6 11.4 7.7 18.5 0 6.8-2.6 13.3-7.5 18.1-4.9 5-11.4 7.7-18.4 7.7zm-.1-5c.1 0 .1 0 0 0 5.7 0 11-2.2 15-6.2 3.9-3.9 6-9.1 6-14.6 0-7.4-3.4-12.2-6.2-15-3.9-3.9-9.2-6.1-14.6-6.1h-.2c-11.5.1-20.9 9.5-20.9 20.9.1 11.6 9.4 21 20.9 21z"/><path class="aist0" d="M142.3 129.6H27.8c-1.4 0-2.5-1.1-2.5-2.5v-50c0-1.4 1.1-2.5 2.5-2.5h114.6c1.4 0 2.5 1.1 2.5 2.5v50c-.1 1.4-1.2 2.5-2.6 2.5zm-112-5h109.6v-45H30.3v45zm112 46.9H94.8c-1.4 0-2.5-1.1-2.5-2.5v-23.4c0-1.4 1.1-2.5 2.5-2.5h47.6c1.4 0 2.5 1.1 2.5 2.5V169c-.1 1.4-1.2 2.5-2.6 2.5zm-45-5h42.6v-18.4H97.3v18.4zm-22 5H27.8c-1.4 0-2.5-1.1-2.5-2.5v-23.4c0-1.4 1.1-2.5 2.5-2.5h47.6c1.4 0 2.5 1.1 2.5 2.5V169c-.1 1.4-1.2 2.5-2.6 2.5zm-45-5h42.6v-18.4H30.3v18.4zm45 23.8H27.8c-1.4 0-2.5-1.1-2.5-2.5s1.1-2.5 2.5-2.5h47.6c1.4 0 2.5 1.1 2.5 2.5s-1.2 2.5-2.6 2.5zm0 13.4H27.8c-1.4 0-2.5-1.1-2.5-2.5s1.1-2.5 2.5-2.5h47.6c1.4 0 2.5 1.1 2.5 2.5s-1.2 2.5-2.6 2.5zm67-13.4H94.8c-1.4 0-2.5-1.1-2.5-2.5s1.1-2.5 2.5-2.5h47.6c1.4 0 2.5 1.1 2.5 2.5s-1.2 2.5-2.6 2.5zm0 13.4H94.8c-1.4 0-2.5-1.1-2.5-2.5s1.1-2.5 2.5-2.5h47.6c1.4 0 2.5 1.1 2.5 2.5s-1.2 2.5-2.6 2.5z"/></symbol><symbol id="52_icon" viewBox="0 0 362.8 294.9" xml:space="preserve" xmlns="http://www.w3.org/2000/svg"><style>.ajst0{fill:#141414}.ajst1{fill:#f54243}</style><path class="ajst0" d="M263.8 273.3h-98.4c-1.4 0-2.5-1.1-2.5-2.5s1.1-2.5 2.5-2.5h98.4c6.4 0 11.7-5.2 11.7-11.7V83.7c0-6.4-5.2-11.7-11.7-11.7H134.6c-6.4 0-11.7 5.2-11.7 11.7v53.7c0 1.4-1.1 2.5-2.5 2.5s-2.5-1.1-2.5-2.5V83.7c0-9.2 7.5-16.7 16.7-16.7h129.2c9.2 0 16.7 7.5 16.7 16.7v172.9c0 9.2-7.5 16.7-16.7 16.7z"/><path class="ajst0" d="M278 102.6H120.4c-1.4 0-2.5-1.1-2.5-2.5s1.1-2.5 2.5-2.5H278c1.4 0 2.5 1.1 2.5 2.5s-1.1 2.5-2.5 2.5zm0 133.7H165.4c-1.4 0-2.5-1.1-2.5-2.5s1.1-2.5 2.5-2.5H278c1.4 0 2.5 1.1 2.5 2.5s-1.1 2.5-2.5 2.5zM213.1 88.8h-27.9c-1.4 0-2.5-1.1-2.5-2.5s1.1-2.5 2.5-2.5h27.9c1.4 0 2.5 1.1 2.5 2.5s-1.1 2.5-2.5 2.5z"/><path class="ajst0" d="M324.8 188.2c-1.4 0-2.5-1.1-2.5-2.5V16.6c0-6.4-5.2-11.6-11.7-11.6H52.1c-6.4 0-11.7 5.2-11.7 11.6v169.1c0 1.4-1.1 2.5-2.5 2.5s-2.5-1.1-2.5-2.5V16.6C35.4 7.4 42.9 0 52.1 0h258.5c9.2 0 16.7 7.4 16.7 16.6v169.1c0 1.4-1.1 2.5-2.5 2.5zM84.3 236.3H16.7c-9.2 0-16.7-7.5-16.7-16.7v-19.2c0-1.4 1.1-2.5 2.5-2.5S5 199 5 200.4v19.2c0 6.4 5.2 11.7 11.7 11.7h67.6c1.4 0 2.5 1.1 2.5 2.5s-1.1 2.5-2.5 2.5zm261.8 0H165.4c-1.4 0-2.5-1.1-2.5-2.5s1.1-2.5 2.5-2.5h180.7c6.4 0 11.7-5.2 11.7-11.7v-19.2c0-1.4 1.1-2.5 2.5-2.5s2.5 1.1 2.5 2.5v19.2c0 9.3-7.5 16.7-16.7 16.7z"/><path class="ajst0" d="M360.3 202.9H278c-1.4 0-2.5-1.1-2.5-2.5s1.1-2.5 2.5-2.5h82.3c1.4 0 2.5 1.1 2.5 2.5s-1.2 2.5-2.5 2.5zm-276 0H2.5c-1.4 0-2.5-1.1-2.5-2.5s1.1-2.5 2.5-2.5h81.8c1.4 0 2.5 1.1 2.5 2.5s-1.1 2.5-2.5 2.5zM324.8 31.7H37.9c-1.4 0-2.5-1.1-2.5-2.5s1.1-2.5 2.5-2.5h286.9c1.4 0 2.5 1.1 2.5 2.5s-1.1 2.5-2.5 2.5zM181.4 23c-3.8 0-6.9-3.1-6.9-6.9s3.1-6.9 6.9-6.9c3.8 0 6.9 3.1 6.9 6.9s-3.1 6.9-6.9 6.9zm0-8.7c-1 0-1.9.8-1.9 1.9s.8 1.9 1.9 1.9c1 0 1.9-.8 1.9-1.9s-.9-1.9-1.9-1.9zm17.8 248.1c-5.8 0-10.5-4.7-10.5-10.5s4.7-10.5 10.5-10.5 10.5 4.7 10.5 10.5-4.8 10.5-10.5 10.5zm0-15.9c-3 0-5.5 2.5-5.5 5.5s2.5 5.5 5.5 5.5 5.5-2.5 5.5-5.5-2.5-5.5-5.5-5.5z"/><path class="ajst1" d="M150.4 294.9H99.5c-9.6 0-17.5-7.9-17.5-17.5v-125c0-9.6 7.9-17.5 17.5-17.5h50.9c9.6 0 17.5 7.9 17.5 17.5v125c0 9.7-7.9 17.5-17.5 17.5zm-50.9-155c-6.9 0-12.5 5.6-12.5 12.5v125c0 6.9 5.6 12.5 12.5 12.5h50.9c6.9 0 12.5-5.6 12.5-12.5v-125c0-6.9-5.6-12.5-12.5-12.5H99.5z"/><path class="ajst1" d="M165.4 163.5H84.5c-1.4 0-2.5-1.1-2.5-2.5s1.1-2.5 2.5-2.5h80.9c1.4 0 2.5 1.1 2.5 2.5s-1.1 2.5-2.5 2.5zm0 98.9H84.5c-1.4 0-2.5-1.1-2.5-2.5s1.1-2.5 2.5-2.5h80.9c1.4 0 2.5 1.1 2.5 2.5s-1.1 2.5-2.5 2.5zm-40.5 20.2c-4.5 0-8.1-3.6-8.1-8.1s3.6-8.1 8.1-8.1 8.1 3.6 8.1 8.1-3.6 8.1-8.1 8.1zm0-11.1c-1.7 0-3.1 1.4-3.1 3.1s1.4 3.1 3.1 3.1c1.7 0 3.1-1.4 3.1-3.1s-1.4-3.1-3.1-3.1z"/></symbol><symbol viewBox="0 0 12.1 21.2" id="Arrow-10" xmlns="http://www.w3.org/2000/svg"><path d="M1.4 21.2c-.4 0-.7-.1-1-.4-.5-.5-.5-1.4 0-2l8.2-8.2c.1-.1.1-.3 0-.4l-8-7.9C.1 1.8.1.9.6.3c.2-.2.5-.3.9-.3s.8.1 1.1.4l9.1 9.1c.5.5.5 1.4 0 2l-9.3 9.3-.1.1c-.3.2-.6.3-.9.3z"/></symbol><symbol viewBox="0 0 98 427.9" id="Arrow-5" xmlns="http://www.w3.org/2000/svg"><path d="M93 427.9c-2 0-3.8-1.1-4.6-3.1L.4 215.9c-.5-1.2-.5-2.6 0-3.9l88-209c1.1-2.5 4-3.7 6.5-2.7 2.5 1.1 3.7 4 2.7 6.5L10.4 214l87.2 207c1.1 2.5-.1 5.5-2.7 6.5-.6.3-1.3.4-1.9.4z"/></symbol><symbol viewBox="0 0 98 427.9" id="Arrow-6" xmlns="http://www.w3.org/2000/svg"><path d="M93 427.9c-2 0-3.8-1.1-4.6-3.1L.4 215.9c-.5-1.2-.5-2.6 0-3.9l88-209c1.1-2.5 4-3.7 6.5-2.7 2.5 1.1 3.7 4 2.7 6.5L10.4 214l87.2 207c1.1 2.5-.1 5.5-2.7 6.5-.6.3-1.3.4-1.9.4z"/></symbol><symbol viewBox="0 0 98 427.9" id="Arrow-7" xmlns="http://www.w3.org/2000/svg"><path d="M93 427.9c-2 0-3.8-1.1-4.6-3.1L.4 215.9c-.5-1.2-.5-2.6 0-3.9l88-209c1.1-2.5 4-3.7 6.5-2.7 2.5 1.1 3.7 4 2.7 6.5L10.4 214l87.2 207c1.1 2.5-.1 5.5-2.7 6.5-.6.3-1.3.4-1.9.4z"/></symbol><symbol viewBox="0 0 98 427.9" id="Arrow-8" xmlns="http://www.w3.org/2000/svg"><path d="M93 427.9c-2 0-3.8-1.1-4.6-3.1L.4 215.9c-.5-1.2-.5-2.6 0-3.9l88-209c1.1-2.5 4-3.7 6.5-2.7 2.5 1.1 3.7 4 2.7 6.5L10.4 214l87.2 207c1.1 2.5-.1 5.5-2.7 6.5-.6.3-1.3.4-1.9.4z"/></symbol><symbol viewBox="0 0 12.1 21.2" id="Arrow-9" xmlns="http://www.w3.org/2000/svg"><path d="M1.4 21.2c-.4 0-.7-.1-1-.4-.5-.5-.5-1.4 0-2l8.2-8.2c.1-.1.1-.3 0-.4l-8-7.9C.1 1.8.1.9.6.3c.2-.2.5-.3.9-.3s.8.1 1.1.4l9.1 9.1c.5.5.5 1.4 0 2l-9.3 9.3-.1.1c-.3.2-.6.3-.9.3z"/></symbol><symbol id="Arrow_1" viewBox="0 0 106.3 16.3" xml:space="preserve" xmlns="http://www.w3.org/2000/svg"><style>.aqst0{fill:#fff}</style><path class="aqst0" d="M94.4 8.7H.5c-.3 0-.5-.3-.5-.5 0-.3.2-.5.5-.5h93.9c.3 0 .5.2.5.5 0 .2-.2.5-.5.5zm11.4 0h-.2L85.9 1c-.3-.1-.4-.4-.3-.6.1-.3.4-.4.6-.3l19.6 7.7c.3.1.4.4.3.6 0 .1-.1.3-.3.3z"/><path class="aqst0" d="M86.1 16.3c-.2 0-.4-.1-.5-.3-.1-.3 0-.5.3-.6l19.6-7.7c.3-.1.5 0 .6.3.1.3 0 .5-.3.6l-19.6 7.7h-.1z"/></symbol><symbol id="Arrow_2" viewBox="0 0 106.3 16.3" xml:space="preserve" xmlns="http://www.w3.org/2000/svg"><style>.arst0{fill:#f54243}</style><path class="arst0" d="M94.4 8.7H.5c-.3 0-.5-.3-.5-.5 0-.3.2-.5.5-.5h93.9c.3 0 .5.2.5.5 0 .2-.2.5-.5.5z"/><path class="arst0" d="M105.8 7.8L86.2.1c-.2-.1-.5 0-.6.3-.1.2 0 .5.3.6l18.6 7.3-18.6 7.3c-.3.1-.4.3-.3.6.1.2.3.3.5.3l19.7-7.7c.2-.1.3-.2.3-.5 0-.2-.1-.4-.3-.5z"/></symbol><symbol id="Arrow_3" viewBox="0 0 106.3 16.3" xml:space="preserve" xmlns="http://www.w3.org/2000/svg"><style>.asst0{fill:#141414}</style><path class="asst0" d="M94.4 8.7H.5c-.3 0-.5-.3-.5-.5 0-.3.2-.5.5-.5h93.9c.3 0 .5.2.5.5 0 .2-.2.5-.5.5zm11.4 0h-.2L85.9 1c-.3-.1-.4-.4-.3-.6.1-.3.4-.4.6-.3l19.6 7.7c.3.1.4.4.3.6 0 .1-.1.3-.3.3z"/><path class="asst0" d="M86.1 16.3c-.2 0-.4-.1-.5-.3-.1-.3 0-.5.3-.6l19.6-7.7c.3-.1.5 0 .6.3s0 .5-.3.6l-19.7 7.7c.1 0 .1 0 0 0z"/></symbol><symbol id="Arrow_4" viewBox="0 0 17.3 55" xml:space="preserve" xmlns="http://www.w3.org/2000/svg"><style>.atst0{fill:#f54243}</style><path class="atst0" d="M8.7 55c-.6 0-.9-.4-1-.7L0 34.6v-.2c0-.3.2-.7.6-.8.2-.1.3-.1.4-.1.4 0 .7.2.9.7l6.8 17.3L15.4 34c.1-.4.5-.7.9-.7.1 0 .3 0 .4.1.2.1.4.3.5.5.1.2.1.5 0 .7L9.6 54.2c-.1.5-.4.8-.9.8z"/><path class="atst0" d="M8.7 43.8c-.6 0-1-.5-1-1V1c0-.6.5-1 1-1s1 .4 1 1v41.8c0 .6-.4 1-1 1z"/></symbol><symbol id="Calendar" viewBox="0 0 73.39 73.4" xmlns="http://www.w3.org/2000/svg"><defs><style>.aucls-1{fill:#fff}</style></defs><path class="aucls-1" d="M36.67 0a36.67 36.67 0 1036.67 36.71A36.78 36.78 0 0036.67 0zm0 66A29.34 29.34 0 1166 36.71 29.42 29.42 0 0136.67 66z"/><path class="aucls-1" d="M38.5 18.37H33v22l19.07 11.74L55 47.34l-16.5-9.9V18.37z"/></symbol><symbol id="Calendar-red" viewBox="0 0 73.4 73.4" xml:space="preserve" xmlns="http://www.w3.org/2000/svg"><style>.avst0{fill:#f54243}</style><path class="avst0" d="M36.7 0C16.4 0 0 16.4 0 36.7s16.4 36.7 36.7 36.7c20.2 0 36.6-16.4 36.7-36.6C73.3 16.5 56.9.1 36.7 0zm0 66C20.5 66 7.3 52.9 7.3 36.7S20.4 7.3 36.7 7.3C52.9 7.3 66 20.4 66 36.7v.1C65.9 52.9 52.8 66 36.7 66z"/><path class="avst0" d="M38.5 18.4H33v22l19.1 11.7 2.9-4.8-16.5-9.9z"/></symbol><symbol viewBox="0 0 31.8 27.1" id="Check" xmlns="http://www.w3.org/2000/svg"><path d="M11.3 27.1c-.7 0-1.2-.3-1.6-.8L.4 13.7c-.7-.9-.5-2.1.4-2.8.9-.7 2.1-.5 2.8.4l7.8 10.6L28.3.8c.7-.9 1.9-1 2.8-.3.9.7 1 1.9.3 2.8L12.9 26.4c-.4.5-1 .7-1.6.7z"/></symbol><symbol viewBox="0 0 53.92 73.4" id="Pin" xmlns="http://www.w3.org/2000/svg"><path d="M27 0A27 27 0 000 27a26.3 26.3 0 002.36 11C9.1 52.85 22 68.46 25.82 72.89a1.53 1.53 0 001.14.52 1.51 1.51 0 001.14-.52c3.8-4.43 16.72-20 23.47-34.83a26.45 26.45 0 002.35-11A27 27 0 0027 0zm0 41.06A14 14 0 1141 27a14 14 0 01-14 14.07z"/></symbol><symbol viewBox="0 0 53.9 73.4" id="Pin-red" xmlns="http://www.w3.org/2000/svg"><path d="M27 0C12.1 0 0 12.1 0 27c0 3.8.8 7.5 2.4 11C9.1 52.8 22 68.5 25.8 72.9c.3.3.7.5 1.1.5.4 0 .9-.2 1.1-.5 3.8-4.4 16.7-20 23.5-34.8 1.6-3.5 2.4-7.2 2.3-11C54 12.2 41.9 0 27 0zm0 41.1c-7.7 0-14-6.3-14-14s6.3-14 14-14S41 19.3 41 27s-6.2 14-14 14.1z"/></symbol><symbol id="Telephone" viewBox="0 0 73.47 73.4" xmlns="http://www.w3.org/2000/svg"><defs><style>.azcls-1{fill:#fff}</style></defs><path class="azcls-1" d="M55.82 48.57a5.13 5.13 0 00-7.77 0c-1.82 1.8-3.64 3.6-5.43 5.43a1.07 1.07 0 01-1.49.28c-1.18-.64-2.43-1.16-3.56-1.86A56.47 56.47 0 0124 40a32.24 32.24 0 01-4.87-7.8 1.12 1.12 0 01.28-1.44c1.81-1.75 3.59-3.56 5.37-5.36 2.49-2.5 2.49-5.44 0-8l-4.26-4.27c-1.47-1.47-2.92-3-4.4-4.4a5.18 5.18 0 00-7.78 0c-1.83 1.81-3.59 3.65-5.45 5.42a8.84 8.84 0 00-2.78 6A25.37 25.37 0 002 31.11a66.21 66.21 0 0011.77 19.56 72.67 72.67 0 0024.07 18.84 35 35 0 0013.34 3.88 9.74 9.74 0 008.38-3.2c1.56-1.74 3.32-3.33 5-5 2.44-2.47 2.46-5.47 0-7.91q-4.35-4.37-8.74-8.71zm-18.68-33.9l-.79 5.67A19.52 19.52 0 0152.9 36.39l5.64-1a25.31 25.31 0 00-21.4-20.76z"/><path class="azcls-1" d="M37.89 0l-.8 5.67a36.26 36.26 0 0130.69 29.75l5.64-1A42 42 0 0037.89 0z"/></symbol><symbol id="Telephone-red" viewBox="0 0 73.5 73.4" xml:space="preserve" xmlns="http://www.w3.org/2000/svg"><style>.bast0{fill:#f54243}</style><path class="bast0" d="M55.8 48.6c-1.9-2.1-5.1-2.4-7.2-.5-.2.2-.4.3-.5.5L42.7 54c-.3.5-1 .6-1.5.3-1.2-.6-2.4-1.2-3.6-1.9C32.4 49 27.8 44.9 24 40c-2-2.4-3.6-5-4.9-7.8-.3-.5-.2-1.1.3-1.4l5.4-5.4c2.5-2.5 2.5-5.4 0-8l-4.3-4.3c-1.5-1.5-2.9-3-4.4-4.4-1.9-2.1-5.1-2.3-7.3-.4-.2.1-.3.3-.5.4l-5.4 5.4c-1.7 1.6-2.7 3.7-2.8 6-.2 3.7.5 7.5 1.9 11 2.8 7.2 6.7 13.8 11.8 19.6 6.6 7.9 14.8 14.3 24.1 18.8 4.1 2.2 8.7 3.5 13.3 3.9 3.1.4 6.3-.8 8.4-3.2 1.6-1.7 3.3-3.3 5-5 2.4-2.5 2.5-5.5 0-7.9-2.9-2.9-5.9-5.8-8.8-8.7zM37.1 14.7l-.8 5.7c8.4 1.2 15.1 7.7 16.6 16l5.6-1C56.7 24.6 48 16.2 37.1 14.7z"/><path class="bast0" d="M37.9 0l-.8 5.7c15.6 2.2 28 14.2 30.7 29.7l5.6-1C70.3 16.4 56 2.5 37.9 0z"/></symbol><symbol viewBox="0 0 29.8 64.7" id="fb_grey" xmlns="http://www.w3.org/2000/svg"><path d="M6.8 64.7h13.1V32h9l.9-10.8h-9.9v-6.3c0-2.5.5-3.6 2.9-3.6h7V0h-9c-9.7 0-14 4.3-14 12.4v8.8H0v11h6.8v32.5z"/></symbol><symbol viewBox="0 0 29.8 64.7" id="fb_white" xmlns="http://www.w3.org/2000/svg"><path d="M6.8 64.7h13.1V32h9l.9-10.8h-9.9v-6.3c0-2.5.5-3.6 2.9-3.6h7V0h-9c-9.7 0-14 4.3-14 12.4v8.8H0v11h6.8v32.5z"/></symbol><symbol id="instagram_grey" viewBox="0 0 59.9 59.9" xml:space="preserve" xmlns="http://www.w3.org/2000/svg"><style>.bdst0{fill:#757575}</style><path class="bdst0" d="M0 29.9V17.1c0-4.2 1.2-8 3.9-11.2C6.5 2.8 9.8.9 13.8.2c1.3-.1 2.6-.2 3.8-.2h25.2c3.2 0 6.2.7 9 2.4 4.3 2.7 7 6.5 7.8 11.5.2 1.2.3 2.4.3 3.7v25.3c0 3.2-.7 6.2-2.4 9-2.7 4.3-6.5 6.9-11.4 7.8-1.2.2-2.4.3-3.6.3H16.9c-7.3-.1-13.4-4.4-15.8-11-.7-1.9-1-3.9-1-5.9C0 38.7 0 34.3 0 29.9zm30-16.6c-9-.1-16.7 7.2-16.7 16.6 0 9.2 7.4 16.7 16.6 16.7 9 0 16.7-7.2 16.7-16.6.1-9.1-7.3-16.7-16.6-16.7zM53.3 10c0-1.8-1.5-3.4-3.3-3.4s-3.4 1.5-3.4 3.3 1.5 3.4 3.4 3.4c1.7.1 3.3-1.5 3.3-3.3z"/><path class="bdst0" d="M30 20c5.6.1 10 4.4 10 10s-4.4 9.9-10 9.9-10-4.4-10-10 4.4-9.8 10-9.9z"/></symbol><symbol id="instagram_white" viewBox="0 0 59.9 59.9" xml:space="preserve" xmlns="http://www.w3.org/2000/svg"><style>.best0{fill:#fff}</style><path class="best0" d="M0 29.9V17.1c0-4.2 1.2-8 3.9-11.2C6.5 2.8 9.8.9 13.8.2c1.3-.1 2.6-.2 3.8-.2h25.2c3.2 0 6.2.7 9 2.4 4.3 2.7 7 6.5 7.8 11.5.2 1.2.3 2.4.3 3.7v25.3c0 3.2-.7 6.2-2.4 9-2.7 4.3-6.5 6.9-11.4 7.8-1.2.2-2.4.3-3.6.3H16.9c-7.3-.1-13.4-4.4-15.8-11-.7-1.9-1-3.9-1-5.9C0 38.7 0 34.3 0 29.9zm30-16.6c-9-.1-16.7 7.2-16.7 16.6 0 9.2 7.4 16.7 16.6 16.7 9 0 16.7-7.2 16.7-16.6.1-9.1-7.3-16.7-16.6-16.7zM53.3 10c0-1.8-1.5-3.4-3.3-3.4s-3.4 1.5-3.4 3.3 1.5 3.4 3.4 3.4c1.7.1 3.3-1.5 3.3-3.3z"/><path class="best0" d="M30 20c5.6.1 10 4.4 10 10s-4.4 9.9-10 9.9-10-4.4-10-10 4.4-9.8 10-9.9z"/></symbol><symbol id="logo-1" viewBox="0 0 1584.7 263.1" xml:space="preserve" xmlns="http://www.w3.org/2000/svg"><style>.bfst0{fill:#757575}.bfst1{fill:#333}.bfst2{fill:#c1c1c1}.bfst4{fill:#ad1734}.bfst5{fill:#fff}</style><path class="bfst0" d="M321.9 126.8H309v46.6h-18.8V64.6H309v45.7h10.4l32-45.7h23.2l-37.4 52.1 40.6 56.7h-22.7l-33.2-46.6zm59.3 5.4c0-7.9 1.6-15.1 4.7-21.4 3.1-6.4 7.5-11.2 13.2-14.6 5.7-3.4 12.2-5.1 19.6-5.1 10.9 0 19.8 3.5 26.6 10.5 6.8 7 10.5 16.3 11 27.9l.1 4.3c0 8-1.5 15.1-4.6 21.4-3.1 6.3-7.4 11.1-13.2 14.6-5.7 3.4-12.3 5.2-19.8 5.2-11.4 0-20.5-3.8-27.4-11.4-6.8-7.6-10.3-17.7-10.3-30.4v-1zm18.1 1.6c0 8.3 1.7 14.8 5.2 19.5 3.4 4.7 8.2 7.1 14.3 7.1 6.1 0 10.9-2.4 14.3-7.2 3.4-4.8 5.1-11.8 5.1-21 0-8.2-1.8-14.6-5.3-19.4-3.5-4.8-8.3-7.2-14.3-7.2-5.9 0-10.6 2.4-14.1 7.1-3.4 4.7-5.2 11.7-5.2 21.1zm120.4 17.3l23.9-58.5h22.7v80.8h-18.2v-53.5l-22.3 53.5h-12.3l-22.3-53.8v53.8H473V92.5h23l23.7 58.6zm135.5 22.3H637v-66.2h-31.5v66.2h-18.2V92.5h67.8v80.9zm38.9-55.1h17.8c6.6 0 12.4 1.1 17.3 3.4s8.7 5.5 11.2 9.6c2.6 4.1 3.8 8.9 3.8 14.4 0 8.3-2.9 15-8.8 20s-13.7 7.6-23.5 7.6h-36.1V92.5H694v25.8zm0 14.5v26.1h17.7c4.4 0 7.9-1.1 10.5-3.3 2.6-2.2 3.8-5.4 3.8-9.5s-1.3-7.3-3.8-9.7c-2.5-2.4-5.9-3.6-10.2-3.6h-18zm84.4-7.8h15.2c1.3-10.3 5.3-18.6 12-24.7 6.6-6.2 15-9.3 25.1-9.3 10.9 0 19.8 3.5 26.6 10.5 6.8 7 10.5 16.3 11 27.9l.1 4.3c0 8-1.5 15.1-4.6 21.4-3.1 6.3-7.4 11.1-13.2 14.6-5.7 3.4-12.3 5.2-19.8 5.2-10.5 0-19-3.2-25.7-9.7-6.7-6.5-10.6-15-11.6-25.6h-15.1v33.8h-18.2V92.5h18.2V125zm33 8.8c0 8.3 1.7 14.8 5.2 19.5s8.2 7.1 14.3 7.1 10.9-2.4 14.3-7.2c3.4-4.8 5.1-11.8 5.1-21 0-8.3-1.8-14.8-5.3-19.5s-8.3-7.1-14.2-7.1c-5.9 0-10.6 2.4-14.1 7.1s-5.3 11.7-5.3 21.1zM947.1 107h-26.2v66.4h-18.2V107h-25.9V92.5h70.3V107zm42.9 67.9c-11.5 0-20.8-3.6-28-10.9-7.1-7.2-10.7-16.9-10.7-29v-2.2c0-8.1 1.6-15.3 4.7-21.6 3.1-6.4 7.5-11.3 13.1-14.8s11.9-5.3 18.8-5.3c11 0 19.5 3.5 25.5 10.5s9 17 9 29.8v7.3h-52.8c.5 6.7 2.8 12 6.7 15.8 3.9 3.9 8.8 5.8 14.8 5.8 8.3 0 15.1-3.4 20.3-10.1l9.8 9.3c-3.2 4.8-7.6 8.6-13 11.2-5.4 2.9-11.5 4.2-18.2 4.2zm-2.2-69.3c-5 0-9 1.7-12.1 5.2-3.1 3.5-5 8.3-5.9 14.6h34.6v-1.3c-.4-6.1-2-10.7-4.9-13.8-2.7-3.1-6.7-4.7-11.7-4.7zm119.5 28.2c0 12.5-2.8 22.5-8.5 29.9-5.7 7.4-13.3 11.2-22.9 11.2-8.9 0-16-2.9-21.3-8.7v38.3h-18.2v-112h16.7l.7 8.2c5.3-6.5 12.6-9.7 21.7-9.7 9.9 0 17.6 3.7 23.2 11 5.6 7.3 8.4 17.5 8.4 30.6v1.2zm-18.1-1.6c0-8.1-1.6-14.5-4.8-19.2-3.2-4.7-7.8-7.1-13.8-7.1-7.4 0-12.8 3.1-16 9.2V151c3.3 6.3 8.7 9.4 16.1 9.4 5.8 0 10.3-2.3 13.6-7 3.3-4.7 4.9-11.7 4.9-21.2z"/><path class="bfst1" d="M1210.5 173.4h-18.8V79.8h-47.9v93.5H1125V64.6h85.6v108.8zm91.8-39.6c0 12.5-2.8 22.5-8.5 29.9-5.7 7.4-13.3 11.2-22.9 11.2-8.9 0-16-2.9-21.3-8.7v38.3h-18.2v-112h16.7l.7 8.2c5.3-6.5 12.6-9.7 21.7-9.7 9.9 0 17.6 3.7 23.2 11 5.6 7.3 8.4 17.5 8.4 30.6v1.2zm-18.1-1.6c0-8.1-1.6-14.5-4.8-19.2-3.2-4.7-7.8-7.1-13.8-7.1-7.4 0-12.8 3.1-16 9.2V151c3.3 6.3 8.7 9.4 16.1 9.4 5.8 0 10.3-2.3 13.6-7 3.3-4.7 4.9-11.7 4.9-21.2zm30 0c0-7.9 1.6-15.1 4.7-21.4 3.1-6.4 7.5-11.2 13.2-14.6 5.7-3.4 12.2-5.1 19.6-5.1 10.9 0 19.8 3.5 26.6 10.5 6.8 7 10.5 16.3 11 27.9l.1 4.3c0 8-1.5 15.1-4.6 21.4-3.1 6.3-7.4 11.1-13.2 14.6-5.7 3.4-12.3 5.2-19.8 5.2-11.4 0-20.5-3.8-27.4-11.4-6.8-7.6-10.3-17.7-10.3-30.4v-1zm18.2 1.6c0 8.3 1.7 14.8 5.2 19.5 3.4 4.7 8.2 7.1 14.3 7.1 6.1 0 10.9-2.4 14.3-7.2 3.4-4.8 5.1-11.8 5.1-21 0-8.2-1.8-14.6-5.3-19.4-3.5-4.8-8.3-7.2-14.3-7.2-5.9 0-10.6 2.4-14.1 7.1-3.5 4.7-5.2 11.7-5.2 21.1zm69.3.3c0-13.2 2.6-23.7 7.8-31.4 5.2-7.7 12.5-11.6 21.8-11.6 3.8 0 7.2.7 10.3 2.1V58.6h18.1v34.8c3.2-1.6 6.9-2.4 11.2-2.4 9.3 0 16.5 3.8 21.8 11.5 5.3 7.7 7.9 18.7 7.9 33.1 0 12.1-2.6 21.7-7.9 28.7-5.3 7-12.5 10.5-21.6 10.5-4.1 0-7.9-.7-11.4-2.2v31.8h-18.1v-31.5c-3 1.3-6.5 1.9-10.5 1.9-8.7 0-15.7-3.2-20.9-9.7-5.2-6.5-8-15.3-8.5-26.6v-4.4zm18.1 1.6c0 8.1 1.3 14.2 4 18.4 2.7 4.2 6.7 6.3 12 6.3 2.2 0 4.2-.2 5.8-.7v-53.3c-1.7-.5-3.6-.7-5.7-.7-5.2 0-9.2 2.4-12 7.2-2.7 4.7-4.1 12.3-4.1 22.8zm62.6-1.6c0-9.1-1.4-16.1-4.3-21-2.9-5-7-7.4-12.3-7.4-2.2 0-4.3.3-6.1 1v53c1.6.5 3.7.7 6.3.7 11 0 16.4-8.8 16.4-26.3zm84.2-41.6h18.1v80.8h-18.1v-53.9l-31.7 53.9h-18.1V92.5h18.1v53.9l31.7-53.9z"/><path class="bfst2" d="M43.9 256.6H24.1c-7.8 0-14.2-6.4-14.2-14.2V72.1c0-7.8 6.4-14.2 14.2-14.2h19.7c7.8 0 14.2 6.4 14.2 14.2v170.3c.1 7.8-6.3 14.2-14.1 14.2zM24.1 62.7c-5.2 0-9.4 4.2-9.4 9.4v170.3c0 5.2 4.2 9.4 9.4 9.4h19.7c5.2 0 9.4-4.2 9.4-9.4V72.1c0-5.2-4.2-9.4-9.4-9.4H24.1zm206.1 193.9h-29.4c-25.2 0-45.8-20.5-45.8-45.8V16.6c0-7.7 6.3-14.1 14.1-14.1h20.1c7.7 0 14.1 6.3 14.1 14.1V187c0 11.8 9.6 21.3 21.3 21.3h5.7c7.8 0 14.1 6.3 14.1 14.1v20c-.2 7.8-6.5 14.2-14.2 14.2zM169 7.3c-5.1 0-9.2 4.1-9.2 9.2v194.2c0 22.6 18.4 41 41 41h29.4c5.1 0 9.3-4.2 9.3-9.3v-20c0-5.1-4.2-9.3-9.3-9.3h-5.7c-14.4 0-26.1-11.7-26.1-26.1V16.6c0-5.1-4.1-9.2-9.2-9.2H169zM34 48.2c-13.3 0-24.1-10.8-24.1-24.1S20.7 0 34 0s24.1 10.8 24.1 24.1S47.3 48.2 34 48.2zm0-43.4c-10.6 0-19.3 8.6-19.3 19.3 0 10.6 8.6 19.3 19.3 19.3s19.3-8.6 19.3-19.3c0-10.6-8.7-19.3-19.3-19.3z"/><path class="bfst2" d="M236.9 97.1h-11.2c-7.7 0-14-6.3-14-14V71.9c0-7.7 6.3-14 14-14h11.2c7.7 0 14 6.3 14 14V83c0 7.8-6.3 14.1-14 14.1zm-11.2-34.4c-5.1 0-9.2 4.1-9.2 9.2V83c0 5.1 4.1 9.2 9.2 9.2h11.2c5.1 0 9.2-4.1 9.2-9.2V71.9c0-5.1-4.1-9.2-9.2-9.2h-11.2z"/><path d="M145.7 82l-31.1 31.1c-10.9 10.9-28.6 10.9-39.5 0-10.9-10.9-10.9-28.6 0-39.5L118 30.7c-12-6.8-27.4-5-37.6 5.1L9.2 107C-3 119.2-3 139.1 9.2 151.4L27 169.2l12.3-12.3c7.9-7.9 20.8-7.9 28.7 0 4.2 4.2 6.2 9.9 5.9 15.5h.9c5.4 0 10.5 2.1 14.3 5.9 3.8 3.8 5.9 8.9 5.9 14.3v.9h1.1c5.4 0 10.5 2.1 14.3 5.9 4.2 4.2 6.2 9.8 5.9 15.3 1.2-.1 2.4 0 3.6.1 3.6.5 7.1 1.9 10 4.2 4.9 3.9 7.7 9.7 7.7 15.9v1l.3-.3 18-18-23.4-23.4c-2-2-2-5.4 0-7.4s5.4-2 7.4 0l23.4 23.4 13.5-13.5-23.4-23.4c-2.2-2.2-2-6 .6-7.9 2.1-1.6 5.1-1.2 6.9.6l23.3 23.3 13.5-13.5-23.4-23.4c-2-2-2-5.4 0-7.4s5.4-2 7.4 0l23.4 23.4 13.5-13.5L145.7 82z"/><path class="bfst4" d="M82.5 81c-3.4 3.4-5.2 8-5.1 12.8.1 4 1.6 7.8 4.2 10.9 6.7 7.8 18.4 8.1 25.6 1L142 70.9c1-1 2.3-1.5 3.7-1.5 1.4 0 2.7.6 3.7 1.5l76.3 76.3c8.6-12.2 7.4-29.2-3.6-40.1l-82.9-82.9c-.2.4-.5.7-.8 1L82.5 81zm20.3 139.8c3.5-3.5 4.1-9.2 1-13.1-3.6-4.6-10.3-5-14.5-1.1l-.3.3L76.9 219l13.8 13.8 12.1-12zm-20.9-21.6c2.2-2.4 3.1-5.8 2.3-9.1-.2-.8-.6-1.7-1-2.4-2.1-3.5-5.9-5.3-9.8-4.8-2.2.3-4.1 1.4-5.7 2.9l-12 12 13.8 13.8 12.3-12.3s.1 0 .1-.1zm45.1 37.1c.5-3.9-1.3-7.7-4.8-9.8-.8-.5-1.6-.8-2.4-1-3.5-.9-7 .1-9.4 2.6l-12.3 12.3 13.8 13.8 12.1-12.1c1.6-1.6 2.7-3.6 3-5.8zm-66.5-71.9c-3.8-3.8-10-3.8-13.8 0l-12.3 12.3 13.8 13.8 12.3-12.3c3.8-3.8 3.8-10 0-13.8z"/><path class="bfst5" d="M139.8 186.9c-2-2-5.4-2-7.4 0s-2 5.4 0 7.4l23.4 23.4c1 1 2.4 1.5 3.7 1.5 1.3 0 2.6-.5 3.6-1.4 2.1-2 2.1-5.4.2-7.5l-23.5-23.4zm-9.9 32.2c-2.9-2.3-6.3-3.7-10-4.2-1.2-.2-2.4-.2-3.6-.1.3-5.5-1.7-11.1-5.9-15.3-3.8-3.8-8.9-5.9-14.3-5.9H95v-.9c0-5.4-2.1-10.5-5.9-14.3-3.8-3.8-8.9-5.9-14.3-5.9h-.9c.3-5.6-1.7-11.2-5.9-15.5-7.9-7.9-20.8-7.9-28.7 0L27 169.2c-2 2-2 5.4 0 7.4s5.3 2 7.4 0l12.3-12.3c3.8-3.8 10-3.8 13.8 0 3.8 3.8 3.8 10 0 13.8l-12.3 12.3c-1.5 1.5-2 3.9-1.1 5.9 1.3 2.7 4.3 3.6 6.7 2.7.7-.3 1.3-.6 1.8-1.2l12-12c1.5-1.5 3.5-2.6 5.7-2.9 3.9-.5 7.7 1.3 9.8 4.8.5.7.8 1.6 1 2.4.8 3.4 0 6.7-2.3 9.1l-.2.2-12.3 12.3c-1.7 1.7-2.2 4.5-.8 6.6 1.1 1.6 2.7 2.4 4.4 2.4 1.3 0 2.7-.5 3.7-1.5l.1-.1L89.1 207l.3-.3c4.1-3.9 10.8-3.6 14.5 1.1 3.1 3.9 2.5 9.6-1 13.1L90.8 233c-1.2 1.2-1.7 2.7-1.5 4.2.2 1.8 1.2 3.5 3.2 4.4 1.9.9 4.2.3 5.7-1.2l12.1-12.1c1.5-1.5 3.5-2.6 5.7-2.9 3.9-.5 7.7 1.3 9.8 4.8.5.8.8 1.6 1 2.4.9 3.5-.1 7-2.6 9.4l-12.3 12.3c-2 2-2 5.4 0 7.4 1 1 2.4 1.5 3.7 1.5 1.3 0 2.7-.5 3.7-1.5l12.3-12.3c3.6-3.6 5.7-8.3 5.9-13.4v-1c.1-6.2-2.7-12-7.6-15.9zm51.8-74.1c-2-2-5.4-2-7.4 0s-2 5.4 0 7.4l23.4 23.4c1 1 2.4 1.5 3.7 1.5 1.4 0 2.9-.6 3.9-1.8 1.8-2 1.7-5.2-.2-7.2L181.7 145z"/><path class="bfst5" d="M225.6 147.1l-76.3-76.3c-1-1-2.3-1.5-3.7-1.5-1.4 0-2.7.6-3.7 1.5l-34.8 34.8c-7.1 7.1-18.9 6.8-25.6-1-2.6-3-4.1-6.9-4.2-10.9-.1-4.8 1.7-9.4 5.1-12.8L138.3 25c.3-.3.6-.7.8-1 1.3-2.2.9-5.1-1.3-6.8-2.1-1.7-5.2-1.4-7.1.5l-12.9 12.9-42.8 43c-10.9 10.9-10.9 28.6 0 39.5 10.9 10.9 28.6 10.9 39.5 0L145.7 82l72.9 72.9c1 1 2.4 1.5 3.7 1.5 1.6 0 3.1-.7 4.2-2.1 1.5-2 1.2-5.2-.6-6.9l-.3-.3zm-64.8 19c-1.9-1.9-4.8-2.2-6.9-.6-2.6 2-2.8 5.7-.6 7.9l23.4 23.4c1 1 2.4 1.5 3.7 1.5 1.4 0 2.8-.6 3.9-1.7 1.8-2 1.7-5 0-7l-.2-.2-23.3-23.3z"/></symbol><symbol id="logo_2" viewBox="0 0 1584.7 263.1" xml:space="preserve" xmlns="http://www.w3.org/2000/svg"><style>.bgst0{fill:#fff}.bgst2{fill:#ad1734}</style><path class="bgst0" d="M321.9 126.8H309v46.6h-18.8V64.6H309v45.7h10.4l32-45.7h23.2l-37.4 52.1 40.6 56.7h-22.7l-33.2-46.6zm59.3 5.4c0-7.9 1.6-15.1 4.7-21.4 3.1-6.4 7.5-11.2 13.2-14.6s12.2-5.1 19.6-5.1c10.9 0 19.8 3.5 26.6 10.5 6.8 7 10.5 16.3 11 27.9l.1 4.3c0 8-1.5 15.1-4.6 21.4-3.1 6.3-7.4 11.1-13.2 14.6-5.7 3.4-12.3 5.2-19.8 5.2-11.4 0-20.5-3.8-27.4-11.4-6.8-7.6-10.3-17.7-10.3-30.4l.1-1zm18.1 1.6c0 8.3 1.7 14.8 5.2 19.5 3.4 4.7 8.2 7.1 14.3 7.1 6.1 0 10.9-2.4 14.3-7.2s5.1-11.8 5.1-21c0-8.2-1.8-14.6-5.3-19.4s-8.3-7.2-14.3-7.2c-5.9 0-10.6 2.4-14.1 7.1-3.4 4.7-5.2 11.7-5.2 21.1zm120.4 17.3l23.9-58.5h22.7v80.8h-18.2v-53.5l-22.3 53.5h-12.3l-22.3-53.8v53.8H473V92.5h23l23.7 58.6zm135.5 22.3H637v-66.2h-31.5v66.2h-18.2V92.5h67.8v80.9h.1zm38.9-55.1h17.8c6.6 0 12.4 1.1 17.3 3.4s8.7 5.5 11.2 9.6c2.6 4.1 3.8 8.9 3.8 14.4 0 8.3-2.9 15-8.8 20s-13.7 7.6-23.5 7.6h-36.1V92.5H694l.1 25.8zm0 14.5v26.1h17.7c4.4 0 7.9-1.1 10.5-3.3s3.8-5.4 3.8-9.5-1.3-7.3-3.8-9.7-5.9-3.6-10.2-3.6h-18zm84.4-7.8h15.2c1.3-10.3 5.3-18.6 12-24.7 6.6-6.2 15-9.3 25.1-9.3 10.9 0 19.8 3.5 26.6 10.5s10.5 16.3 11 27.9l.1 4.3c0 8-1.5 15.1-4.6 21.4-3.1 6.3-7.4 11.1-13.2 14.6-5.7 3.4-12.3 5.2-19.8 5.2-10.5 0-19-3.2-25.7-9.7s-10.6-15-11.6-25.6h-15.1v33.8h-18.2V92.5h18.2V125zm33 8.8c0 8.3 1.7 14.8 5.2 19.5s8.2 7.1 14.3 7.1 10.9-2.4 14.3-7.2c3.4-4.8 5.1-11.8 5.1-21 0-8.3-1.8-14.8-5.3-19.5s-8.3-7.1-14.2-7.1-10.6 2.4-14.1 7.1-5.3 11.7-5.3 21.1zM947.1 107h-26.2v66.4h-18.2V107h-25.9V92.5h70.3V107zm42.9 67.9c-11.5 0-20.8-3.6-28-10.9-7.1-7.2-10.7-16.9-10.7-29v-2.2c0-8.1 1.6-15.3 4.7-21.6 3.1-6.4 7.5-11.3 13.1-14.8s11.9-5.3 18.8-5.3c11 0 19.5 3.5 25.5 10.5s9 17 9 29.8v7.3h-52.8c.5 6.7 2.8 12 6.7 15.8 3.9 3.9 8.8 5.8 14.8 5.8 8.3 0 15.1-3.4 20.3-10.1l9.8 9.3c-3.2 4.8-7.6 8.6-13 11.2-5.4 2.9-11.5 4.2-18.2 4.2zm-2.2-69.3c-5 0-9 1.7-12.1 5.2s-5 8.3-5.9 14.6h34.6v-1.3c-.4-6.1-2-10.7-4.9-13.8-2.7-3.1-6.7-4.7-11.7-4.7zm119.5 28.2c0 12.5-2.8 22.5-8.5 29.9s-13.3 11.2-22.9 11.2c-8.9 0-16-2.9-21.3-8.7v38.3h-18.2v-112h16.7l.7 8.2c5.3-6.5 12.6-9.7 21.7-9.7 9.9 0 17.6 3.7 23.2 11s8.4 17.5 8.4 30.6v1.2h.2zm-18.1-1.6c0-8.1-1.6-14.5-4.8-19.2-3.2-4.7-7.8-7.1-13.8-7.1-7.4 0-12.8 3.1-16 9.2V151c3.3 6.3 8.7 9.4 16.1 9.4 5.8 0 10.3-2.3 13.6-7 3.3-4.7 4.9-11.7 4.9-21.2zm121.3 41.2h-18.8V79.8h-47.9v93.5H1125V64.6h85.6l-.1 108.8zm91.8-39.6c0 12.5-2.8 22.5-8.5 29.9s-13.3 11.2-22.9 11.2c-8.9 0-16-2.9-21.3-8.7v38.3h-18.2v-112h16.7l.7 8.2c5.3-6.5 12.6-9.7 21.7-9.7 9.9 0 17.6 3.7 23.2 11s8.4 17.5 8.4 30.6v1.2h.2zm-18.1-1.6c0-8.1-1.6-14.5-4.8-19.2-3.2-4.7-7.8-7.1-13.8-7.1-7.4 0-12.8 3.1-16 9.2V151c3.3 6.3 8.7 9.4 16.1 9.4 5.8 0 10.3-2.3 13.6-7 3.3-4.7 4.9-11.7 4.9-21.2zm30 0c0-7.9 1.6-15.1 4.7-21.4 3.1-6.4 7.5-11.2 13.2-14.6s12.2-5.1 19.6-5.1c10.9 0 19.8 3.5 26.6 10.5 6.8 7 10.5 16.3 11 27.9l.1 4.3c0 8-1.5 15.1-4.6 21.4-3.1 6.3-7.4 11.1-13.2 14.6-5.7 3.4-12.3 5.2-19.8 5.2-11.4 0-20.5-3.8-27.4-11.4-6.8-7.6-10.3-17.7-10.3-30.4v-1h.1zm18.2 1.6c0 8.3 1.7 14.8 5.2 19.5 3.4 4.7 8.2 7.1 14.3 7.1 6.1 0 10.9-2.4 14.3-7.2s5.1-11.8 5.1-21c0-8.2-1.8-14.6-5.3-19.4s-8.3-7.2-14.3-7.2c-5.9 0-10.6 2.4-14.1 7.1-3.5 4.7-5.2 11.7-5.2 21.1zm69.3.3c0-13.2 2.6-23.7 7.8-31.4 5.2-7.7 12.5-11.6 21.8-11.6 3.8 0 7.2.7 10.3 2.1V58.6h18.1v34.8c3.2-1.6 6.9-2.4 11.2-2.4 9.3 0 16.5 3.8 21.8 11.5s7.9 18.7 7.9 33.1c0 12.1-2.6 21.7-7.9 28.7s-12.5 10.5-21.6 10.5c-4.1 0-7.9-.7-11.4-2.2v31.8h-18.1v-31.5c-3 1.3-6.5 1.9-10.5 1.9-8.7 0-15.7-3.2-20.9-9.7-5.2-6.5-8-15.3-8.5-26.6v-4.4zm18.1 1.6c0 8.1 1.3 14.2 4 18.4s6.7 6.3 12 6.3c2.2 0 4.2-.2 5.8-.7v-53.3c-1.7-.5-3.6-.7-5.7-.7-5.2 0-9.2 2.4-12 7.2-2.7 4.7-4.1 12.3-4.1 22.8zm62.6-1.6c0-9.1-1.4-16.1-4.3-21-2.9-5-7-7.4-12.3-7.4-2.2 0-4.3.3-6.1 1v53c1.6.5 3.7.7 6.3.7 11 0 16.4-8.8 16.4-26.3zm84.2-41.6h18.1v80.8h-18.1v-53.9l-31.7 53.9h-18.1V92.5h18.1v53.9l31.7-53.9zM43.9 256.6H24.1c-7.8 0-14.2-6.4-14.2-14.2V72.1c0-7.8 6.4-14.2 14.2-14.2h19.7c7.8 0 14.2 6.4 14.2 14.2v170.3c.1 7.8-6.3 14.2-14.1 14.2zM24.1 62.7c-5.2 0-9.4 4.2-9.4 9.4v170.3c0 5.2 4.2 9.4 9.4 9.4h19.7c5.2 0 9.4-4.2 9.4-9.4V72.1c0-5.2-4.2-9.4-9.4-9.4H24.1zm206.1 193.9h-29.4c-25.2 0-45.8-20.5-45.8-45.8V16.6c0-7.7 6.3-14.1 14.1-14.1h20.1c7.7 0 14.1 6.3 14.1 14.1V187c0 11.8 9.6 21.3 21.3 21.3h5.7c7.8 0 14.1 6.3 14.1 14.1v20c-.2 7.8-6.5 14.2-14.2 14.2zM169 7.3c-5.1 0-9.2 4.1-9.2 9.2v194.2c0 22.6 18.4 41 41 41h29.4c5.1 0 9.3-4.2 9.3-9.3v-20c0-5.1-4.2-9.3-9.3-9.3h-5.7c-14.4 0-26.1-11.7-26.1-26.1V16.6c0-5.1-4.1-9.2-9.2-9.2H169v-.1zM34 48.2c-13.3 0-24.1-10.8-24.1-24.1S20.7 0 34 0s24.1 10.8 24.1 24.1S47.3 48.2 34 48.2zm0-43.4c-10.6 0-19.3 8.6-19.3 19.3 0 10.6 8.6 19.3 19.3 19.3s19.3-8.6 19.3-19.3c0-10.6-8.7-19.3-19.3-19.3z"/><path class="bgst0" d="M236.9 97.1h-11.2c-7.7 0-14-6.3-14-14V71.9c0-7.7 6.3-14 14-14h11.2c7.7 0 14 6.3 14 14V83c0 7.8-6.3 14.1-14 14.1zm-11.2-34.4c-5.1 0-9.2 4.1-9.2 9.2V83c0 5.1 4.1 9.2 9.2 9.2h11.2c5.1 0 9.2-4.1 9.2-9.2V71.9c0-5.1-4.1-9.2-9.2-9.2h-11.2z"/><path d="M145.7 82l-31.1 31.1c-10.9 10.9-28.6 10.9-39.5 0s-10.9-28.6 0-39.5L118 30.7c-12-6.8-27.4-5-37.6 5.1L9.2 107C-3 119.2-3 139.1 9.2 151.4L27 169.2l12.3-12.3c7.9-7.9 20.8-7.9 28.7 0 4.2 4.2 6.2 9.9 5.9 15.5h.9c5.4 0 10.5 2.1 14.3 5.9 3.8 3.8 5.9 8.9 5.9 14.3v.9h1.1c5.4 0 10.5 2.1 14.3 5.9 4.2 4.2 6.2 9.8 5.9 15.3 1.2-.1 2.4 0 3.6.1 3.6.5 7.1 1.9 10 4.2 4.9 3.9 7.7 9.7 7.7 15.9v1l.3-.3 18-18-23.4-23.4c-2-2-2-5.4 0-7.4s5.4-2 7.4 0l23.4 23.4 13.5-13.5-23.4-23.4c-2.2-2.2-2-6 .6-7.9 2.1-1.6 5.1-1.2 6.9.6l23.3 23.3 13.5-13.5-23.4-23.4c-2-2-2-5.4 0-7.4s5.4-2 7.4 0l23.4 23.4 13.5-13.5L145.7 82z"/><path class="bgst2" d="M82.5 81c-3.4 3.4-5.2 8-5.1 12.8.1 4 1.6 7.8 4.2 10.9 6.7 7.8 18.4 8.1 25.6 1L142 70.9c1-1 2.3-1.5 3.7-1.5s2.7.6 3.7 1.5l76.3 76.3c8.6-12.2 7.4-29.2-3.6-40.1l-82.9-82.9c-.2.4-.5.7-.8 1L82.5 81zm20.3 139.8c3.5-3.5 4.1-9.2 1-13.1-3.6-4.6-10.3-5-14.5-1.1l-.3.3L76.9 219l13.8 13.8 12.1-12zm-20.9-21.6c2.2-2.4 3.1-5.8 2.3-9.1-.2-.8-.6-1.7-1-2.4-2.1-3.5-5.9-5.3-9.8-4.8-2.2.3-4.1 1.4-5.7 2.9l-12 12 13.8 13.8 12.4-12.4c-.1.1 0 .1 0 0zm45.1 37.1c.5-3.9-1.3-7.7-4.8-9.8-.8-.5-1.6-.8-2.4-1-3.5-.9-7 .1-9.4 2.6l-12.3 12.3 13.8 13.8 12.1-12.1c1.6-1.6 2.7-3.6 3-5.8zm-66.5-71.9c-3.8-3.8-10-3.8-13.8 0l-12.3 12.3 13.8 13.8 12.3-12.3c3.8-3.8 3.8-10 0-13.8z"/><path class="bgst0" d="M139.8 186.9c-2-2-5.4-2-7.4 0s-2 5.4 0 7.4l23.4 23.4c1 1 2.4 1.5 3.7 1.5s2.6-.5 3.6-1.4c2.1-2 2.1-5.4.2-7.5l-23.5-23.4zm-9.9 32.2c-2.9-2.3-6.3-3.7-10-4.2-1.2-.2-2.4-.2-3.6-.1.3-5.5-1.7-11.1-5.9-15.3-3.8-3.8-8.9-5.9-14.3-5.9H95v-.9c0-5.4-2.1-10.5-5.9-14.3s-8.9-5.9-14.3-5.9h-.9c.3-5.6-1.7-11.2-5.9-15.5-7.9-7.9-20.8-7.9-28.7 0L27 169.2c-2 2-2 5.4 0 7.4s5.3 2 7.4 0l12.3-12.3c3.8-3.8 10-3.8 13.8 0 3.8 3.8 3.8 10 0 13.8l-12.3 12.3c-1.5 1.5-2 3.9-1.1 5.9 1.3 2.7 4.3 3.6 6.7 2.7.7-.3 1.3-.6 1.8-1.2l12-12c1.5-1.5 3.5-2.6 5.7-2.9 3.9-.5 7.7 1.3 9.8 4.8.5.7.8 1.6 1 2.4.8 3.4 0 6.7-2.3 9.1l-.2.2-12.3 12.3c-1.7 1.7-2.2 4.5-.8 6.6 1.1 1.6 2.7 2.4 4.4 2.4 1.3 0 2.7-.5 3.7-1.5l.1-.1L89.1 207l.3-.3c4.1-3.9 10.8-3.6 14.5 1.1 3.1 3.9 2.5 9.6-1 13.1L90.8 233c-1.2 1.2-1.7 2.7-1.5 4.2.2 1.8 1.2 3.5 3.2 4.4 1.9.9 4.2.3 5.7-1.2l12.1-12.1c1.5-1.5 3.5-2.6 5.7-2.9 3.9-.5 7.7 1.3 9.8 4.8.5.8.8 1.6 1 2.4.9 3.5-.1 7-2.6 9.4l-12.3 12.3c-2 2-2 5.4 0 7.4 1 1 2.4 1.5 3.7 1.5 1.3 0 2.7-.5 3.7-1.5l12.3-12.3c3.6-3.6 5.7-8.3 5.9-13.4v-1c.1-6.2-2.7-12-7.6-15.9zm51.8-74.1c-2-2-5.4-2-7.4 0s-2 5.4 0 7.4l23.4 23.4c1 1 2.4 1.5 3.7 1.5 1.4 0 2.9-.6 3.9-1.8 1.8-2 1.7-5.2-.2-7.2L181.7 145z"/><path class="bgst0" d="M225.6 147.1l-76.3-76.3c-1-1-2.3-1.5-3.7-1.5s-2.7.6-3.7 1.5l-34.8 34.8c-7.1 7.1-18.9 6.8-25.6-1-2.6-3-4.1-6.9-4.2-10.9-.1-4.8 1.7-9.4 5.1-12.8L138.3 25c.3-.3.6-.7.8-1 1.3-2.2.9-5.1-1.3-6.8-2.1-1.7-5.2-1.4-7.1.5l-12.9 12.9-42.8 43c-10.9 10.9-10.9 28.6 0 39.5s28.6 10.9 39.5 0L145.7 82l72.9 72.9c1 1 2.4 1.5 3.7 1.5 1.6 0 3.1-.7 4.2-2.1 1.5-2 1.2-5.2-.6-6.9l-.3-.3zm-64.8 19c-1.9-1.9-4.8-2.2-6.9-.6-2.6 2-2.8 5.7-.6 7.9l23.4 23.4c1 1 2.4 1.5 3.7 1.5 1.4 0 2.8-.6 3.9-1.7 1.8-2 1.7-5 0-7l-.2-.2-23.3-23.3z"/></symbol><symbol id="menu-black" viewBox="0 0 59.9 38.9" xml:space="preserve" xmlns="http://www.w3.org/2000/svg"><style>.bhst0{fill:#141414}</style><path class="bhst0" d="M59.4 1H.5C.2 1 0 .8 0 .5S.2 0 .5 0h58.9c.3 0 .5.2.5.5s-.2.5-.5.5zm0 12.6H.5c-.3 0-.5-.2-.5-.5s.2-.5.5-.5h58.9c.3 0 .5.2.5.5s-.2.5-.5.5zm0 12.6H.5c-.3 0-.5-.2-.5-.5s.2-.5.5-.5h58.9c.3 0 .5.2.5.5s-.2.5-.5.5zm0 12.7H.5c-.3 0-.5-.2-.5-.5s.2-.5.5-.5h58.9c.3 0 .5.2.5.5s-.2.5-.5.5z"/></symbol><symbol id="odnoklassniki_grey" viewBox="0 0 38.5 66.2" xml:space="preserve" xmlns="http://www.w3.org/2000/svg"><style>.bist0{fill:#757575}</style><path class="bist0" d="M26.3 47.7c0 .3 0 .3 0 0l9.4 9.4c.8.8 1.2 1.6 1.6 2.7.4 2.3-1.2 5.1-3.5 5.9-2 .4-3.5 0-4.7-1.2l-.4-.4-8.6-8.6-.4-.4s-.4 0-.4.4l-9 9c-.8.8-1.6 1.2-2.7 1.6-2.7.8-5.5-1.2-5.9-3.9-.4-2 0-3.1 1.6-4.7 3.1-3.1 5.9-6.2 9-9l.4-.4c-3.1-.8-6.2-2-9.4-3.9-1.6-1.2-2.7-2-3.1-3.5-.8-3.1 1.2-5.9 3.9-6.2 1.6 0 2.7 0 3.9.8 1.6 1.2 3.5 2 5.5 2.3 2.3.8 4.3.8 6.6.8 3.9 0 7.4-1.2 10.5-3.1.8-.4 1.6-.8 2.7-.8 2 0 3.5 1.2 4.7 3.1 1.2 2.3 0 5.1-2 6.2-2 1.2-3.9 2.3-6.2 3.1-1.1.4-2.3.4-3.5.8zM2.1 16.8C2.1 7.8 9.9 0 19.3 0s16.8 7.8 16.8 17.2S28.3 34 18.9 34 2.1 26.2 2.1 16.8zm17.2 7c3.9 0 7-3.1 7-7s-3.1-7-7-7c-3.5.4-7 3.1-7 7 0 4.3 3.5 7 7 7z"/></symbol><symbol id="odnoklassniki_white" viewBox="0 0 38.5 66.2" xml:space="preserve" xmlns="http://www.w3.org/2000/svg"><style>.bjst0{fill:#fff}</style><path class="bjst0" d="M26.3 47.7c0 .3 0 .3 0 0l9.4 9.4c.8.8 1.2 1.6 1.6 2.7.4 2.3-1.2 5.1-3.5 5.9-2 .4-3.5 0-4.7-1.2l-.4-.4-8.6-8.6-.4-.4s-.4 0-.4.4l-9 9c-.8.8-1.6 1.2-2.7 1.6-2.7.8-5.5-1.2-5.9-3.9-.4-2 0-3.1 1.6-4.7 3.1-3.1 5.9-6.2 9-9l.4-.4c-3.1-.8-6.2-2-9.4-3.9-1.6-1.2-2.7-2-3.1-3.5-.8-3.1 1.2-5.9 3.9-6.2 1.6 0 2.7 0 3.9.8 1.6 1.2 3.5 2 5.5 2.3 2.3.8 4.3.8 6.6.8 3.9 0 7.4-1.2 10.5-3.1.8-.4 1.6-.8 2.7-.8 2 0 3.5 1.2 4.7 3.1 1.2 2.3 0 5.1-2 6.2-2 1.2-3.9 2.3-6.2 3.1-1.1.4-2.3.4-3.5.8zM2.1 16.8C2.1 7.8 9.9 0 19.3 0s16.8 7.8 16.8 17.2S28.3 34 18.9 34 2.1 26.2 2.1 16.8zm17.2 7c3.9 0 7-3.1 7-7s-3.1-7-7-7c-3.5.4-7 3.1-7 7 0 4.3 3.5 7 7 7z"/></symbol><symbol viewBox="0 0 20.31 37.28" id="social_fb" xmlns="http://www.w3.org/2000/svg"><path d="M3.15 35V21.58H1.88a2 2 0 01-1.88-2V14.3a2.61 2.61 0 01.91-2c.48-.53 1.21-1.35 1.47-1.62a2.12 2.12 0 01.75-.43 9.55 9.55 0 011.06-4.49 21.67 21.67 0 013.16-3.81 7.64 7.64 0 015-1.95H18a1.93 1.93 0 012.22 2.22v4.71a2.25 2.25 0 01-.63 1.84l-1.22 1.31a2 2 0 011.95 2.36c-.16 1.39-.48 4.42-.53 5a2.7 2.7 0 01-.46 1.4c-.27.34-1.44 1.62-1.91 2.14a2.05 2.05 0 01-1.59.6h-.49V33a3.39 3.39 0 01-.37 1.45c-.31.39-1.58 1.83-2.06 2.34a2.29 2.29 0 01-1.69.51H5.29A2 2 0 013.15 35z"/><path d="M18.36 12h-5V8.79a1.3 1.3 0 011.38-1.51h3.51V1.9h-4.8c-5.36 0-6.58 4-6.58 6.58v3.59H3.78v5.54h3.1V33.3h6.5V17.58h4.4z"/></symbol><symbol viewBox="0 0 36.41 36.37" id="social_insta" xmlns="http://www.w3.org/2000/svg"><path d="M29.37 0H9.09a6.93 6.93 0 00-4.93 2.26C2.78 3.62 2.62 3.77 1.6 4.88A7.14 7.14 0 000 9.08v20.75a6.6 6.6 0 006.54 6.54h20.75a6.66 6.66 0 004.59-1.94c1-1.09 1.89-1.86 2.91-2.91a7.18 7.18 0 001.61-4.25V6.51C36.41 2.88 33.43 0 29.37 0z"/><path d="M28.86 1.62H10.12a5.91 5.91 0 00-5.9 5.9v18.74a5.91 5.91 0 005.9 5.9h18.75a5.91 5.91 0 005.9-5.9V7.52a5.91 5.91 0 00-5.91-5.9zm1.69 3.51h.68v5.18h-5.16V5.13zm-15.4 8.63a5.37 5.37 0 11-1 3.14 5.37 5.37 0 011-3.14zm16.64 12.51a2.93 2.93 0 01-2.93 2.93H10.12a2.93 2.93 0 01-2.92-2.93V13.76h4.57a8.35 8.35 0 1015.47 0h4.56z"/></symbol><symbol viewBox="0 0 37.77 31.38" id="social_twitter" xmlns="http://www.w3.org/2000/svg"><path d="M.45 25.71c.8-.67 2.11-1.89 2.7-2.27a1.93 1.93 0 011.4-.32h1.06a7.45 7.45 0 01-1.87-3c-.26-.84-.07-1 0-1.26a8.2 8.2 0 01-2.48-6A1.74 1.74 0 012 11.5a8.55 8.55 0 01-.69-3.57 12.38 12.38 0 01.89-3.22 3.72 3.72 0 011-1.3c.37-.29 1.65-1.36 2.06-1.73a1.67 1.67 0 012.49.17c4.06 4.69 8.37 5.54 8.37 5.54a12.62 12.62 0 011.75-2.72c.69-.59 3.16-2.7 3.7-3.14a8.21 8.21 0 0110 .37A11.31 11.31 0 0034.38.77a1.65 1.65 0 012.19 2.4c1.66.34 1.25 1.92.84 2.65a29.1 29.1 0 01-2.83 3.08 20.55 20.55 0 01-6.91 15.44c-.65.56-3.33 2.77-4.43 3.6a20.3 20.3 0 01-12 3.42 19.86 19.86 0 01-10.32-3 1.67 1.67 0 01-.47-2.65z"/><path d="M36.19 4.75a13.07 13.07 0 01-3.78 1 6.58 6.58 0 002.89-3.6 13.15 13.15 0 01-4.17 1.59 6.58 6.58 0 00-11.19 6A18.65 18.65 0 016.4 2.87a6.58 6.58 0 002 8.77 6.55 6.55 0 01-3-.82v.08a6.57 6.57 0 005.27 6.44 6.6 6.6 0 01-1.67.24 6.5 6.5 0 01-1.23-.12A6.58 6.58 0 0013.9 22a13.25 13.25 0 01-9.75 2.72 18.59 18.59 0 0010.07 3c12.08 0 18.69-10 18.69-18.69v-.89a13.31 13.31 0 003.28-3.39z"/></symbol><symbol viewBox="0 0 63.3 35.3" id="vk_grey" xmlns="http://www.w3.org/2000/svg"><path d="M23.6 0h11.1c1.2.1 1.8.9 1.9 2.1 0 .3.1.6.1.9v11c0 .9.1 1.8.7 2.5s1.3.9 2.1.3c.1-.1.4-.3.6-.4 1-1.2 2.1-2.4 2.8-3.6 2.1-3.1 3.7-6.4 5-10 .4-1.2 1.2-1.6 2.5-1.6h10.7c.9.1 1.6.3 1.9 1.3v.3c0 .3-.1.4-.1.7-.4 1.6-1.3 3.3-2.4 4.6-1.9 2.7-3.9 5.2-5.8 7.9-.6.7-1.2 1.6-1.6 2.4-.6 1-.4 1.9.3 3l1.3 1.3c1.3 1.3 2.8 2.7 4.2 4.2 1.5 1.5 2.8 3 3.7 4.8.1.3.3.7.4 1.2.3 1.5-.6 2.5-2.1 2.5H50.5c-1.6-.3-3.1-1.2-4.3-2.4-1.3-1.3-2.5-2.8-3.9-4.2-.6-.6-1.2-1-1.8-1.5-1-.6-1.9-.3-2.5.6-.3.6-.6 1.2-.7 1.8-.1 1-.3 2.2-.4 3.3-.1 1.5-.7 2.1-2.1 2.2-1.6.1-3.3.1-5 0-4-.3-7.6-1.6-10.8-3.9-2.8-1.6-5-4-7.1-6.7C7.1 18 3.3 10.5 0 2.8v-.6c.1-.6.7-.9 1.3-1h9.5c.3 0 .6 0 .9.1.9.3 1.3 1 1.8 1.8 1.6 4 3.7 7.9 6.2 11.4.4.6 1 1.3 1.6 1.9.3.3.7.6 1.2.7.6.3 1.2.1 1.5-.4.1-.3.3-.6.4-1 .3-1 .4-1.9.4-3 .1-2.5.1-4.9-.3-7.4 0-1.3-.7-2.3-1.9-2.8-.3-.1-.6-.1-1-.3-.6-.1-.6-.3-.3-.9.5-.6 1.3-1.2 2.3-1.3z"/></symbol><symbol viewBox="0 0 63.3 35.3" id="vk_white" xmlns="http://www.w3.org/2000/svg"><path d="M23.6 0h11.1c1.2.1 1.8.9 1.9 2.1 0 .3.1.6.1.9v11c0 .9.1 1.8.7 2.5s1.3.9 2.1.3c.1-.1.4-.3.6-.4 1-1.2 2.1-2.4 2.8-3.6 2.1-3.1 3.7-6.4 5-10 .4-1.2 1.2-1.6 2.5-1.6h10.7c.9.1 1.6.3 1.9 1.3v.3c0 .3-.1.4-.1.7-.4 1.6-1.3 3.3-2.4 4.6-1.9 2.7-3.9 5.2-5.8 7.9-.6.7-1.2 1.6-1.6 2.4-.6 1-.4 1.9.3 3l1.3 1.3c1.3 1.3 2.8 2.7 4.2 4.2 1.5 1.5 2.8 3 3.7 4.8.1.3.3.7.4 1.2.3 1.5-.6 2.5-2.1 2.5H50.5c-1.6-.3-3.1-1.2-4.3-2.4-1.3-1.3-2.5-2.8-3.9-4.2-.6-.6-1.2-1-1.8-1.5-1-.6-1.9-.3-2.5.6-.3.6-.6 1.2-.7 1.8-.1 1-.3 2.2-.4 3.3-.1 1.5-.7 2.1-2.1 2.2-1.6.1-3.3.1-5 0-4-.3-7.6-1.6-10.8-3.9-2.8-1.6-5-4-7.1-6.7C7.1 18 3.3 10.5 0 2.8v-.6c.1-.6.7-.9 1.3-1h9.5c.3 0 .6 0 .9.1.9.3 1.3 1 1.8 1.8 1.6 4 3.7 7.9 6.2 11.4.4.6 1 1.3 1.6 1.9.3.3.7.6 1.2.7.6.3 1.2.1 1.5-.4.1-.3.3-.6.4-1 .3-1 .4-1.9.4-3 .1-2.5.1-4.9-.3-7.4 0-1.3-.7-2.3-1.9-2.8-.3-.1-.6-.1-1-.3-.6-.1-.6-.3-.3-.9.5-.6 1.3-1.2 2.3-1.3z"/></symbol><symbol viewBox="0 0 66.5 42.9" id="youtube_grey" xmlns="http://www.w3.org/2000/svg"><path d="M56 0H10.3C4.6 0 0 5 0 10.9v21.2C0 38.2 4.6 43 10.3 43h45.9c5.7 0 10.3-5 10.3-10.9V10.9C66.3 5 61.7 0 56 0zM25.6 35V7.9l23.8 13.5L25.6 35z"/></symbol><symbol viewBox="0 0 66.5 42.9" id="youtube_white" xmlns="http://www.w3.org/2000/svg"><path d="M56 0H10.3C4.6 0 0 5 0 10.9v21.2C0 38.2 4.6 43 10.3 43h45.9c5.7 0 10.3-5 10.3-10.9V10.9C66.3 5 61.7 0 56 0zM25.6 35V7.9l23.8 13.5L25.6 35z"/></symbol></svg>