<?xml version="1.0" encoding="utf-8"?>
<!-- Generator: Adobe Illustrator 22.0.0, SVG Export Plug-In . SVG Version: 6.00 Build 0)  -->
<svg version="1.1" id="Слой_1" xmlns="http://www.w3.org/2000/svg" xmlns:xlink="http://www.w3.org/1999/xlink" x="0px" y="0px"
	 viewBox="0 0 304 308.6" style="enable-background:new 0 0 304 308.6;" xml:space="preserve">
<style type="text/css">
	.st0{fill:#141414;}
	.st1{fill:#CE0B0B;}
</style>
<g>
	<path class="st0" d="M156.9,291.8c-1.4,0-2.5-1.1-2.5-2.5V13.9c0-1.4,1.1-2.5,2.5-2.5s2.5,1.1,2.5,2.5v275.4
		C159.4,290.7,158.3,291.8,156.9,291.8z"/>
	<path class="st0" d="M2.5,90.5c-0.6,0-1.3-0.2-1.8-0.7c-1-1-1-2.6,0-3.5L35,51.9c0.5-0.5,1.1-0.7,1.8-0.7h120.1
		c1.4,0,2.5,1.1,2.5,2.5s-1.1,2.5-2.5,2.5H37.8L4.3,89.8C3.8,90.2,3.1,90.5,2.5,90.5z"/>
	<path class="st0" d="M156.9,124.8H36.8c-0.7,0-1.3-0.3-1.8-0.7L0.7,89.8c-1-1-1-2.6,0-3.5c1-1,2.6-1,3.5,0l33.6,33.6h119.1
		c1.4,0,2.5,1.1,2.5,2.5S158.3,124.8,156.9,124.8z"/>
	<path class="st0" d="M267.6,185.7c-0.4,0-0.7-0.1-1.1-0.2l-110.6-53.2c-1.2-0.6-1.8-2.1-1.2-3.3c0.6-1.2,2.1-1.8,3.3-1.2
		l109.2,52.5l29-24.2l-17.7-42L155.9,56c-1.2-0.6-1.8-2.1-1.2-3.3c0.6-1.2,2.1-1.8,3.3-1.2L281.5,110c0.6,0.3,1,0.7,1.2,1.3
		l18.8,44.6c0.4,1,0.1,2.2-0.7,2.9l-31.7,26.4C268.7,185.5,268.1,185.7,267.6,185.7z"/>
	<path class="st1" d="M255.2,89c-0.8,0-1.6-0.4-2.1-1.1c-0.8-1.2-0.4-2.7,0.7-3.5l28.5-18.7l16-41.9L268.3,5.4L176,52.5
		c-1.2,0.6-2.7,0.1-3.4-1.1c-0.6-1.2-0.1-2.7,1.1-3.4l93.5-47.8c0.8-0.4,1.7-0.4,2.4,0.1l33.1,20.3c1,0.6,1.5,1.9,1,3l-17,44.6
		c-0.2,0.5-0.5,0.9-1,1.2l-29.2,19.1C256.2,88.9,255.7,89,255.2,89z"/>
	<path class="st0" d="M145.7,115.4H40.3c-0.7,0-1.3-0.3-1.8-0.8L14.8,90.5c-1-1-0.9-2.6,0-3.5c1-1,2.6-0.9,3.5,0l23,23.5h104.3
		c1.4,0,2.5,1.1,2.5,2.5S147,115.4,145.7,115.4z"/>
	<path class="st0" d="M266.8,173.7c-0.4,0-0.7-0.1-1.1-0.2L165,125.7c-1.2-0.6-1.8-2.1-1.2-3.3c0.6-1.2,2.1-1.8,3.3-1.2l99.3,47
		l19.8-16.5c1.1-0.9,2.6-0.7,3.5,0.3c0.9,1.1,0.7,2.6-0.3,3.5l-21,17.5C268,173.5,267.4,173.7,266.8,173.7z"/>
	<path class="st1" d="M245,83.8c-0.8,0-1.6-0.4-2.1-1.1c-0.7-1.2-0.4-2.7,0.7-3.5l31.8-20.5l12.1-31.9c0.5-1.3,1.9-1.9,3.2-1.5
		c1.3,0.5,1.9,1.9,1.5,3.2l-12.4,32.7c-0.2,0.5-0.5,0.9-1,1.2l-32.5,21C245.9,83.7,245.5,83.8,245,83.8z"/>
	<path class="st0" d="M156.9,308.6c-29.3,0-60.4-7.4-60.4-21c0-8.7,13.2-15.8,35.2-19.2c1.4-0.2,2.6,0.7,2.8,2.1s-0.7,2.6-2.1,2.8
		c-21.3,3.2-31,9.7-31,14.3c0,7.6,23.7,16,55.4,16s55.4-8.4,55.4-16c0-4.7-9.9-11.2-31.6-14.3c-1.4-0.2-2.3-1.5-2.1-2.8
		c0.2-1.4,1.5-2.3,2.8-2.1c22.5,3.3,35.9,10.5,35.9,19.3C217.3,301.2,186.2,308.6,156.9,308.6z"/>
</g>
</svg>
