<?xml version="1.0" encoding="utf-8"?>
<!-- Generator: Adobe Illustrator 22.0.0, SVG Export Plug-In . SVG Version: 6.00 Build 0)  -->
<svg version="1.1" id="Слой_1" xmlns="http://www.w3.org/2000/svg" xmlns:xlink="http://www.w3.org/1999/xlink" x="0px" y="0px"
	 viewBox="0 0 323.5 308.6" style="enable-background:new 0 0 323.5 308.6;" xml:space="preserve">
<style type="text/css">
	.st0{fill:#141414;}
	.st1{fill:#CE0B0B;}
</style>
<g>
	<path class="st0" d="M154.3,276.4c-67.4,0-122.2-54.8-122.2-122.2c0-67.4,54.8-122.2,122.2-122.2c5.4,0,10.8,0.4,16.1,1.1
		c1.4,0.2,2.3,1.4,2.2,2.8s-1.4,2.3-2.8,2.2c-5.1-0.7-10.3-1-15.4-1c-64.6,0-117.2,52.6-117.2,117.2c0,64.6,52.6,117.2,117.2,117.2
		c64.6,0,117.2-52.6,117.2-117.2c0-19.7-5-39.2-14.5-56.4c-0.7-1.2-0.2-2.7,1-3.4c1.2-0.7,2.7-0.2,3.4,1
		c9.9,17.9,15.1,38.3,15.1,58.8C276.4,221.6,221.6,276.4,154.3,276.4z"/>
	<path class="st0" d="M241.9,75.3c-0.7,0-1.3-0.3-1.8-0.8c-4-4.3-8.4-8.4-13.1-12.1c-1.1-0.9-1.3-2.4-0.4-3.5
		c0.9-1.1,2.4-1.3,3.5-0.4c4.8,3.8,9.4,8.1,13.6,12.6c0.9,1,0.9,2.6-0.1,3.5C243.2,75.1,242.5,75.3,241.9,75.3z"/>
	<path class="st0" d="M208.5,50.1c-0.4,0-0.8-0.1-1.1-0.3c-3.8-1.9-7.8-3.7-11.8-5.2c-1.3-0.5-1.9-1.9-1.5-3.2s1.9-1.9,3.2-1.5
		c4.2,1.6,8.3,3.4,12.3,5.4c1.2,0.6,1.7,2.1,1.1,3.4C210.3,49.6,209.4,50.1,208.5,50.1z"/>
	<path class="st0" d="M154.3,308.6C69.2,308.6,0,239.4,0,154.3C0,69.2,69.2,0,154.3,0c42.9,0,82.7,17.2,112.2,48.4
		c0.9,1,0.9,2.6-0.1,3.5s-2.6,0.9-3.5-0.1C234.3,21.6,195.8,5,154.3,5C72,5,5,72,5,154.3s67,149.3,149.3,149.3s149.3-67,149.3-149.3
		c0-28.4-8-56-23.1-79.8c-0.7-1.2-0.4-2.7,0.8-3.4c1.2-0.7,2.7-0.4,3.5,0.8c15.6,24.6,23.9,53.2,23.9,82.5
		C308.6,239.4,239.4,308.6,154.3,308.6z"/>
	<g>
		<path class="st1" d="M152.6,205.5c-0.6,0-1.3-0.2-1.8-0.7c-1-1-1-2.6,0-3.5L317.5,34.5l-16.8-16.8L154.3,164.2c-1,1-2.6,1-3.5,0
			c-1-1-1-2.6,0-3.5L299,12.5c0.9-0.9,2.6-0.9,3.5,0l20.3,20.3c1,1,1,2.6,0,3.5L154.3,204.8C153.8,205.3,153.2,205.5,152.6,205.5z"
			/>
		<path class="st1" d="M152.6,205.5c-0.6,0-1.3-0.2-1.8-0.7L71,125c-1-1-1-2.6,0-3.5l20.3-20.3c1-1,2.6-1,3.5,0l59.5,59.5
			c1,1,1,2.6,0,3.5c-1,1-2.6,1-3.5,0l-57.7-57.7l-16.8,16.8l78,78c1,1,1,2.6,0,3.5C153.8,205.3,153.2,205.5,152.6,205.5z"/>
	</g>
	<path class="st0" d="M152.6,84.7c-1.4,0-2.5-1.1-2.5-2.5V66.1c0-1.4,1.1-2.5,2.5-2.5s2.5,1.1,2.5,2.5v16.1
		C155.1,83.5,153.9,84.7,152.6,84.7z"/>
	<path class="st0" d="M152.6,248.4c-1.4,0-2.5-1.1-2.5-2.5v-16.1c0-1.4,1.1-2.5,2.5-2.5s2.5,1.1,2.5,2.5v16.1
		C155.1,247.3,153.9,248.4,152.6,248.4z"/>
	<path class="st0" d="M119.7,241.2c-0.3,0-0.6,0-0.9-0.2c-1.3-0.5-2-1.9-1.5-3.2l5.5-15.1c0.5-1.3,1.9-2,3.2-1.5
		c1.3,0.5,2,1.9,1.5,3.2l-5.5,15.1C121.7,240.5,120.7,241.2,119.7,241.2z"/>
	<path class="st0" d="M91.1,222.6c-0.6,0-1.3-0.2-1.8-0.7c-1-1-1-2.6,0-3.5l11.4-11.4c1-1,2.6-1,3.5,0c1,1,1,2.6,0,3.5l-11.4,11.4
		C92.4,222.3,91.8,222.6,91.1,222.6z"/>
	<path class="st0" d="M244.8,156.8h-16.1c-1.4,0-2.5-1.1-2.5-2.5s1.1-2.5,2.5-2.5h16.1c1.4,0,2.5,1.1,2.5,2.5
		S246.2,156.8,244.8,156.8z"/>
	<path class="st0" d="M77,156.8H60.9c-1.4,0-2.5-1.1-2.5-2.5s1.1-2.5,2.5-2.5H77c1.4,0,2.5,1.1,2.5,2.5S78.4,156.8,77,156.8z"/>
	<path class="st0" d="M70.3,193.8c-0.9,0-1.9-0.5-2.3-1.5c-0.6-1.3,0-2.7,1.2-3.3l14.6-6.7c1.3-0.6,2.7,0,3.3,1.2
		c0.6,1.3,0,2.7-1.2,3.3l-14.6,6.7C71,193.8,70.7,193.8,70.3,193.8z"/>
</g>
</svg>
