<?xml version="1.0" encoding="utf-8"?>
<!-- Generator: Adobe Illustrator 22.0.0, SVG Export Plug-In . SVG Version: 6.00 Build 0)  -->
<svg version="1.1" id="Слой_1" xmlns="http://www.w3.org/2000/svg" xmlns:xlink="http://www.w3.org/1999/xlink" x="0px" y="0px"
	 viewBox="0 0 323.8 252.5" style="enable-background:new 0 0 323.8 252.5;" xml:space="preserve">
<style type="text/css">
	.st0{fill:#141414;}
	.st1{fill:#CE0B0B;}
	.st2{fill:#F54243;}
</style>
<g>
	<g>
		<circle class="st0" cx="27.8" cy="28.1" r="3"/>
		<circle class="st0" cx="37" cy="28.1" r="3"/>
		<circle class="st0" cx="46.3" cy="28.1" r="3"/>
	</g>
	<path class="st0" d="M163.4,227.7H12.2c-6.7,0-12.2-5.5-12.2-12.2V12.2C0,5.5,5.5,0,12.2,0h272.4c6.7,0,12.2,5.5,12.2,12.2v84.4
		c0,1.4-1.1,2.5-2.5,2.5s-2.5-1.1-2.5-2.5V12.2c0-4-3.2-7.2-7.2-7.2H12.2C8.2,5,5,8.2,5,12.2v203.3c0,4,3.2,7.2,7.2,7.2h151.2
		c1.4,0,2.5,1.1,2.5,2.5S164.8,227.7,163.4,227.7z"/>
	<path class="st0" d="M293.7,56H3.2c-1.4,0-2.5-1.1-2.5-2.5S1.8,51,3.2,51h290.5c1.4,0,2.5,1.1,2.5,2.5S295,56,293.7,56z"/>
	<path class="st1" d="M267.8,30.6H77.1c-1.4,0-2.5-1.1-2.5-2.5s1.1-2.5,2.5-2.5h190.7c1.4,0,2.5,1.1,2.5,2.5S269.2,30.6,267.8,30.6z
		"/>
	<path class="st2" d="M262.8,252.5c-0.4,0-0.9-0.1-1.2-0.3c-0.6-0.3-1-0.9-1.2-1.6c-3-11.8-10-17.7-21.2-17.9c-4.6-0.1-9,1.6-13,5.2
		c-3.5,3.1-5.8,7.2-6.7,12.2c-0.2,1.2-1.3,2-2.5,2c0,0,0,0,0,0c-8.1,0-28.2-12-35.2-19.8c-0.9-1-0.8-2.5,0.1-3.5
		c8.8-8.6,10.3-17.7,4.4-27.6c-2.3-4-6-6.8-11-8.3c-4.4-1.4-9-1.2-14,0.5c-0.7,0.2-1.4,0.2-2-0.2c-0.6-0.3-1.1-0.9-1.2-1.6
		c-3.2-13.4-3.2-26.4,0-39.7c0.2-0.7,0.6-1.2,1.1-1.6c0.6-0.3,1.3-0.4,1.9-0.3c11.4,2.9,20,0.3,25.3-7.9c2.8-4.4,3.9-9.3,3-14.5
		c-0.8-4.9-3.3-9.3-7.5-12.8c-0.5-0.4-0.8-1-0.9-1.7s0.2-1.3,0.6-1.8c7-8.1,27.4-19.7,35.2-20c1.2,0,2.3,0.8,2.5,2
		c1.2,6.2,4.2,10.8,9.1,14.1c3.6,2.4,7.5,3.5,11.7,3.4c9.9-0.3,16.5-6,20.1-17.6c0.3-1,1.2-1.7,2.2-1.8c7.6-0.5,29.7,12.7,35.5,20
		c0.8,1.1,0.7,2.6-0.4,3.5c-4.8,4-7.4,9-7.8,15.1c-0.3,4,0.7,7.9,2.9,11.6c2.6,4.3,6.2,7.2,10.9,8.9c4.6,1.6,9.3,1.5,14.4-0.4
		c0.7-0.2,1.4-0.2,2,0.2c0.6,0.3,1.1,0.9,1.2,1.6c3.2,13.3,3.2,26.3,0.1,39.7c-0.2,0.7-0.6,1.2-1.2,1.6c-0.6,0.3-1.3,0.4-1.9,0.3
		c-12.4-3.4-21-0.1-26.3,10.1c-4.7,9.1-2.8,17.4,5.7,25.6c0.5,0.5,0.8,1.1,0.8,1.8c0,0.7-0.3,1.3-0.8,1.8
		c-9.9,9.4-21.1,15.9-34.2,19.8C263.3,252.4,263.1,252.5,262.8,252.5z M187.1,230.7c7,6.6,21.4,14.6,27.9,16.2
		c1.4-5.1,4-9.3,7.8-12.7c4.7-4.2,10.2-6.4,16-6.4c0.1,0,0.3,0,0.4,0c12.8,0.2,21.3,6.7,25.3,19.1c10.5-3.5,19.7-8.8,27.9-16.1
		c-8.4-9.1-10.1-19.3-4.8-29.6c6-11.6,16.1-16.1,29.5-13.2c2.2-10.9,2.2-21.5,0-32.3c-5.2,1.4-10.2,1.2-15.1-0.4
		c-5.8-2-10.4-5.7-13.6-11c-2.7-4.5-3.9-9.4-3.6-14.5c0.4-6.6,3-12.2,7.6-16.8c-6.4-6.3-21.8-14.9-28-16.2
		c-4.4,12.4-12.5,18.9-24.1,19.2c-5.2,0.1-10.2-1.3-14.6-4.2c-5.3-3.5-8.9-8.6-10.7-14.9c-6.8,1.7-21.1,9.6-27.9,16.2
		c4,4,6.4,8.7,7.3,14.1c1,6.5-0.2,12.6-3.8,18c-6.1,9.4-15.8,13-28.2,10.6c-2.2,10.9-2.2,21.5,0,32.4c5.1-1.3,9.8-1.2,14.5,0.3
		c6.2,2,10.8,5.5,13.8,10.6C197.2,209.9,196,220.9,187.1,230.7z M239.8,197.6C239.8,197.6,239.8,197.6,239.8,197.6L239.8,197.6
		c-14.3,0-25.9-11.6-25.9-25.9c0-14.2,11.6-25.8,25.8-25.9c0.1,0,0.2,0,0.2,0c6.7,0,13.3,2.7,18.1,7.5c4.9,4.8,7.6,11.4,7.7,18.5
		c0,6.8-2.6,13.3-7.5,18.1C253.3,194.9,246.8,197.6,239.8,197.6z M239.7,192.6C239.8,192.6,239.8,192.6,239.7,192.6
		c5.7,0,11-2.2,15-6.2c3.9-3.9,6-9.1,6-14.6c0-7.4-3.4-12.2-6.2-15c-3.9-3.9-9.2-6.1-14.6-6.1c-0.1,0-0.1,0-0.2,0
		c-11.5,0.1-20.9,9.5-20.9,20.9C218.9,183.2,228.2,192.6,239.7,192.6L239.7,192.6z"/>
	<path class="st0" d="M142.3,129.6H27.8c-1.4,0-2.5-1.1-2.5-2.5v-50c0-1.4,1.1-2.5,2.5-2.5h114.6c1.4,0,2.5,1.1,2.5,2.5v50
		C144.8,128.5,143.7,129.6,142.3,129.6z M30.3,124.6h109.6v-45H30.3V124.6z"/>
	<path class="st0" d="M142.3,171.5H94.8c-1.4,0-2.5-1.1-2.5-2.5v-23.4c0-1.4,1.1-2.5,2.5-2.5h47.6c1.4,0,2.5,1.1,2.5,2.5V169
		C144.8,170.4,143.7,171.5,142.3,171.5z M97.3,166.5h42.6v-18.4H97.3V166.5z"/>
	<path class="st0" d="M75.3,171.5H27.8c-1.4,0-2.5-1.1-2.5-2.5v-23.4c0-1.4,1.1-2.5,2.5-2.5h47.6c1.4,0,2.5,1.1,2.5,2.5V169
		C77.8,170.4,76.7,171.5,75.3,171.5z M30.3,166.5h42.6v-18.4H30.3V166.5z"/>
	<path class="st0" d="M75.3,190.3H27.8c-1.4,0-2.5-1.1-2.5-2.5s1.1-2.5,2.5-2.5h47.6c1.4,0,2.5,1.1,2.5,2.5S76.7,190.3,75.3,190.3z"
		/>
	<path class="st0" d="M75.3,203.7H27.8c-1.4,0-2.5-1.1-2.5-2.5s1.1-2.5,2.5-2.5h47.6c1.4,0,2.5,1.1,2.5,2.5S76.7,203.7,75.3,203.7z"
		/>
	<path class="st0" d="M142.3,190.3H94.8c-1.4,0-2.5-1.1-2.5-2.5s1.1-2.5,2.5-2.5h47.6c1.4,0,2.5,1.1,2.5,2.5
		S143.7,190.3,142.3,190.3z"/>
	<path class="st0" d="M142.3,203.7H94.8c-1.4,0-2.5-1.1-2.5-2.5s1.1-2.5,2.5-2.5h47.6c1.4,0,2.5,1.1,2.5,2.5
		S143.7,203.7,142.3,203.7z"/>
</g>
</svg>
