<?xml version="1.0" encoding="utf-8"?>
<!-- Generator: Adobe Illustrator 22.0.0, SVG Export Plug-In . SVG Version: 6.00 Build 0)  -->
<svg version="1.1" id="Слой_1" xmlns="http://www.w3.org/2000/svg" xmlns:xlink="http://www.w3.org/1999/xlink" x="0px" y="0px"
	 viewBox="0 0 362.8 294.9" style="enable-background:new 0 0 362.8 294.9;" xml:space="preserve">
<style type="text/css">
	.st0{fill:#141414;}
	.st1{fill:#F54243;}
</style>
<g>
	<path class="st0" d="M263.8,273.3h-98.4c-1.4,0-2.5-1.1-2.5-2.5s1.1-2.5,2.5-2.5h98.4c6.4,0,11.7-5.2,11.7-11.7V83.7
		c0-6.4-5.2-11.7-11.7-11.7H134.6c-6.4,0-11.7,5.2-11.7,11.7v53.7c0,1.4-1.1,2.5-2.5,2.5s-2.5-1.1-2.5-2.5V83.7
		c0-9.2,7.5-16.7,16.7-16.7h129.2c9.2,0,16.7,7.5,16.7,16.7v172.9C280.5,265.8,273,273.3,263.8,273.3z"/>
	<path class="st0" d="M278,102.6H120.4c-1.4,0-2.5-1.1-2.5-2.5s1.1-2.5,2.5-2.5H278c1.4,0,2.5,1.1,2.5,2.5S279.4,102.6,278,102.6z"
		/>
	<path class="st0" d="M278,236.3H165.4c-1.4,0-2.5-1.1-2.5-2.5s1.1-2.5,2.5-2.5H278c1.4,0,2.5,1.1,2.5,2.5S279.4,236.3,278,236.3z"
		/>
	<path class="st0" d="M213.1,88.8h-27.9c-1.4,0-2.5-1.1-2.5-2.5s1.1-2.5,2.5-2.5h27.9c1.4,0,2.5,1.1,2.5,2.5S214.5,88.8,213.1,88.8z
		"/>
	<path class="st0" d="M324.8,188.2c-1.4,0-2.5-1.1-2.5-2.5V16.6c0-6.4-5.2-11.6-11.7-11.6H52.1c-6.4,0-11.7,5.2-11.7,11.6v169.1
		c0,1.4-1.1,2.5-2.5,2.5s-2.5-1.1-2.5-2.5V16.6C35.4,7.4,42.9,0,52.1,0h258.5c9.2,0,16.7,7.4,16.7,16.6v169.1
		C327.3,187.1,326.2,188.2,324.8,188.2z"/>
	<path class="st0" d="M84.3,236.3H16.7c-9.2,0-16.7-7.5-16.7-16.7v-19.2c0-1.4,1.1-2.5,2.5-2.5S5,199,5,200.4v19.2
		c0,6.4,5.2,11.7,11.7,11.7h67.6c1.4,0,2.5,1.1,2.5,2.5S85.7,236.3,84.3,236.3z"/>
	<path class="st0" d="M346.1,236.3H165.4c-1.4,0-2.5-1.1-2.5-2.5s1.1-2.5,2.5-2.5h180.7c6.4,0,11.7-5.2,11.7-11.7v-19.2
		c0-1.4,1.1-2.5,2.5-2.5s2.5,1.1,2.5,2.5v19.2C362.8,228.9,355.3,236.3,346.1,236.3z"/>
	<path class="st0" d="M360.3,202.9H278c-1.4,0-2.5-1.1-2.5-2.5s1.1-2.5,2.5-2.5h82.3c1.4,0,2.5,1.1,2.5,2.5S361.6,202.9,360.3,202.9
		z"/>
	<path class="st0" d="M84.3,202.9H2.5c-1.4,0-2.5-1.1-2.5-2.5s1.1-2.5,2.5-2.5h81.8c1.4,0,2.5,1.1,2.5,2.5S85.7,202.9,84.3,202.9z"
		/>
	<path class="st0" d="M324.8,31.7H37.9c-1.4,0-2.5-1.1-2.5-2.5s1.1-2.5,2.5-2.5h286.9c1.4,0,2.5,1.1,2.5,2.5S326.2,31.7,324.8,31.7z
		"/>
	<path class="st0" d="M181.4,23c-3.8,0-6.9-3.1-6.9-6.9s3.1-6.9,6.9-6.9c3.8,0,6.9,3.1,6.9,6.9S185.2,23,181.4,23z M181.4,14.3
		c-1,0-1.9,0.8-1.9,1.9s0.8,1.9,1.9,1.9c1,0,1.9-0.8,1.9-1.9S182.4,14.3,181.4,14.3z"/>
	<path class="st0" d="M199.2,262.4c-5.8,0-10.5-4.7-10.5-10.5s4.7-10.5,10.5-10.5s10.5,4.7,10.5,10.5S204.9,262.4,199.2,262.4z
		 M199.2,246.5c-3,0-5.5,2.5-5.5,5.5s2.5,5.5,5.5,5.5s5.5-2.5,5.5-5.5S202.2,246.5,199.2,246.5z"/>
	<g>
		<path class="st1" d="M150.4,294.9H99.5c-9.6,0-17.5-7.9-17.5-17.5v-125c0-9.6,7.9-17.5,17.5-17.5h50.9c9.6,0,17.5,7.9,17.5,17.5
			v125C167.9,287.1,160,294.9,150.4,294.9z M99.5,139.9c-6.9,0-12.5,5.6-12.5,12.5v125c0,6.9,5.6,12.5,12.5,12.5h50.9
			c6.9,0,12.5-5.6,12.5-12.5v-125c0-6.9-5.6-12.5-12.5-12.5H99.5z"/>
		<path class="st1" d="M165.4,163.5H84.5c-1.4,0-2.5-1.1-2.5-2.5s1.1-2.5,2.5-2.5h80.9c1.4,0,2.5,1.1,2.5,2.5
			S166.8,163.5,165.4,163.5z"/>
		<path class="st1" d="M165.4,262.4H84.5c-1.4,0-2.5-1.1-2.5-2.5s1.1-2.5,2.5-2.5h80.9c1.4,0,2.5,1.1,2.5,2.5
			S166.8,262.4,165.4,262.4z"/>
		<path class="st1" d="M124.9,282.6c-4.5,0-8.1-3.6-8.1-8.1s3.6-8.1,8.1-8.1s8.1,3.6,8.1,8.1S129.4,282.6,124.9,282.6z M124.9,271.5
			c-1.7,0-3.1,1.4-3.1,3.1s1.4,3.1,3.1,3.1c1.7,0,3.1-1.4,3.1-3.1S126.6,271.5,124.9,271.5z"/>
	</g>
</g>
</svg>
