<?xml version="1.0" encoding="utf-8"?>
<!-- Generator: Adobe Illustrator 22.0.0, SVG Export Plug-In . SVG Version: 6.00 Build 0)  -->
<svg version="1.1" id="Слой_1" xmlns="http://www.w3.org/2000/svg" xmlns:xlink="http://www.w3.org/1999/xlink" x="0px" y="0px"
	 viewBox="0 0 106.3 16.3" style="enable-background:new 0 0 106.3 16.3;" xml:space="preserve">
<style type="text/css">
	.st0{fill:#FFFFFF;}
</style>
<path class="st0" d="M94.4,8.7H0.5C0.2,8.7,0,8.4,0,8.2c0-0.3,0.2-0.5,0.5-0.5h93.9c0.3,0,0.5,0.2,0.5,0.5
	C94.9,8.4,94.7,8.7,94.4,8.7z"/>
<path class="st0" d="M105.8,8.7c-0.1,0-0.1,0-0.2,0L85.9,1c-0.3-0.1-0.4-0.4-0.3-0.6c0.1-0.3,0.4-0.4,0.6-0.3l19.6,7.7
	c0.3,0.1,0.4,0.4,0.3,0.6C106.1,8.5,106,8.7,105.8,8.7z"/>
<path class="st0" d="M86.1,16.3c-0.2,0-0.4-0.1-0.5-0.3c-0.1-0.3,0-0.5,0.3-0.6l19.6-7.7c0.3-0.1,0.5,0,0.6,0.3
	c0.1,0.3,0,0.5-0.3,0.6l-19.6,7.7C86.2,16.3,86.2,16.3,86.1,16.3z"/>
</svg>
