<?xml version="1.0" encoding="utf-8"?>
<!-- Generator: Adobe Illustrator 22.0.0, SVG Export Plug-In . SVG Version: 6.00 Build 0)  -->
<svg version="1.1" id="Слой_1" xmlns="http://www.w3.org/2000/svg" xmlns:xlink="http://www.w3.org/1999/xlink" x="0px" y="0px"
	 viewBox="0 0 17.3 55" style="enable-background:new 0 0 17.3 55;" xml:space="preserve">
<style type="text/css">
	.st0{fill:#F54243;}
</style>
<path class="st0" d="M8.7,55c-0.6,0-0.9-0.4-1-0.7L0,34.6c0-0.1,0-0.1,0-0.2c0-0.3,0.2-0.7,0.6-0.8c0.2-0.1,0.3-0.1,0.4-0.1
	c0.4,0,0.7,0.2,0.9,0.7l6.8,17.3L15.4,34c0.1-0.4,0.5-0.7,0.9-0.7c0.1,0,0.3,0,0.4,0.1c0.2,0.1,0.4,0.3,0.5,0.5
	c0.1,0.2,0.1,0.5,0,0.7L9.6,54.2C9.5,54.7,9.2,55,8.7,55z"/>
<path class="st0" d="M8.7,43.8c-0.6,0-1-0.5-1-1V1c0-0.6,0.5-1,1-1s1,0.4,1,1v41.8C9.7,43.4,9.3,43.8,8.7,43.8z"/>
</svg>
