<?xml version="1.0" encoding="utf-8"?>
<!-- Generator: Adobe Illustrator 22.0.0, SVG Export Plug-In . SVG Version: 6.00 Build 0)  -->
<svg version="1.1" id="inst" xmlns="http://www.w3.org/2000/svg" xmlns:xlink="http://www.w3.org/1999/xlink" x="0px" y="0px"
	 viewBox="0 0 59.9 59.9" style="enable-background:new 0 0 59.9 59.9;" xml:space="preserve">
<style type="text/css">
	.st0{fill:#757575;}
</style>
<g>
	<path class="st0" d="M0,29.9c0-4.3,0-8.5,0-12.8c0-4.2,1.2-8,3.9-11.2c2.6-3.1,5.9-5,9.9-5.7C15.1,0.1,16.4,0,17.6,0
		C26,0,34.4,0,42.8,0c3.2,0,6.2,0.7,9,2.4c4.3,2.7,7,6.5,7.8,11.5c0.2,1.2,0.3,2.4,0.3,3.7c0,8.4,0,16.9,0,25.3c0,3.2-0.7,6.2-2.4,9
		c-2.7,4.3-6.5,6.9-11.4,7.8c-1.2,0.2-2.4,0.3-3.6,0.3c-8.5,0-17.1,0-25.6,0C9.6,59.9,3.5,55.6,1.1,49c-0.7-1.9-1-3.9-1-5.9
		C0,38.7,0,34.3,0,29.9z M30,13.3c-9-0.1-16.7,7.2-16.7,16.6c0,9.2,7.4,16.7,16.6,16.7c9,0,16.7-7.2,16.7-16.6
		C46.7,20.9,39.3,13.3,30,13.3z M53.3,10c0-1.8-1.5-3.4-3.3-3.4s-3.4,1.5-3.4,3.3s1.5,3.4,3.4,3.4C51.7,13.4,53.3,11.8,53.3,10z"/>
	<path class="st0" d="M30,20c5.6,0.1,10,4.4,10,10s-4.4,9.9-10,9.9s-10-4.4-10-10S24.4,20.1,30,20z"/>
</g>
</svg>
