<?xml version="1.0" encoding="utf-8"?>
<!-- Generator: Adobe Illustrator 22.0.0, SVG Export Plug-In . SVG Version: 6.00 Build 0)  -->
<svg version="1.1" id="Capa_1" xmlns="http://www.w3.org/2000/svg" xmlns:xlink="http://www.w3.org/1999/xlink" x="0px" y="0px"
	 viewBox="0 0 38.5 66.2" style="enable-background:new 0 0 38.5 66.2;" xml:space="preserve">
<style type="text/css">
	.st0{fill:#FFFFFF;}
</style>
<g>
	<path class="st0" d="M26.3,47.7C26.3,48,26.3,48,26.3,47.7c3.1,3.1,6.2,6.2,9.4,9.4c0.8,0.8,1.2,1.6,1.6,2.7
		c0.4,2.3-1.2,5.1-3.5,5.9c-2,0.4-3.5,0-4.7-1.2l-0.4-0.4c-2.7-2.7-5.9-5.9-8.6-8.6l-0.4-0.4c0,0-0.4,0-0.4,0.4
		c-3.1,3.1-5.9,5.9-9,9c-0.8,0.8-1.6,1.2-2.7,1.6c-2.7,0.8-5.5-1.2-5.9-3.9c-0.4-2,0-3.1,1.6-4.7c3.1-3.1,5.9-6.2,9-9
		c0,0,0,0,0.4-0.4l0,0c-3.1-0.8-6.2-2-9.4-3.9c-1.6-1.2-2.7-2-3.1-3.5c-0.8-3.1,1.2-5.9,3.9-6.2c1.6,0,2.7,0,3.9,0.8
		c1.6,1.2,3.5,2,5.5,2.3c2.3,0.8,4.3,0.8,6.6,0.8c3.9,0,7.4-1.2,10.5-3.1c0.8-0.4,1.6-0.8,2.7-0.8c2,0,3.5,1.2,4.7,3.1
		c1.2,2.3,0,5.1-2,6.2c-2,1.2-3.9,2.3-6.2,3.1C28.7,47.3,27.5,47.3,26.3,47.7L26.3,47.7z"/>
	<path class="st0" d="M2.1,16.8C2.1,7.8,9.9,0,19.3,0s16.8,7.8,16.8,17.2S28.3,34,18.9,34S2.1,26.2,2.1,16.8z M19.3,23.8
		c3.9,0,7-3.1,7-7s-3.1-7-7-7c-3.5,0.4-7,3.1-7,7C12.3,21.1,15.8,23.8,19.3,23.8z"/>
</g>
</svg>
