<?xml version="1.0" encoding="utf-8"?>
<!-- Generator: Adobe Illustrator 22.0.0, SVG Export Plug-In . SVG Version: 6.00 Build 0)  -->
<svg version="1.1" id="vk" xmlns="http://www.w3.org/2000/svg" xmlns:xlink="http://www.w3.org/1999/xlink" x="0px" y="0px"
	 viewBox="0 0 63.3 35.3" style="enable-background:new 0 0 63.3 35.3;" xml:space="preserve">
<style type="text/css">
	.st0{fill:#757575;}
</style>
<path class="st0" d="M23.6,0c3.7,0,7.3,0,11,0h0.1c1.2,0.1,1.8,0.9,1.9,2.1c0,0.3,0.1,0.6,0.1,0.9c0,3.7,0,7.3,0,11
	c0,0.9,0.1,1.8,0.7,2.5c0.6,0.7,1.3,0.9,2.1,0.3c0.1-0.1,0.4-0.3,0.6-0.4c1-1.2,2.1-2.4,2.8-3.6c2.1-3.1,3.7-6.4,5-10
	c0.4-1.2,1.2-1.6,2.5-1.6c3.1,0,6.1,0,9.2,0c0.4,0,1,0,1.5,0C62,1.3,62.7,1.5,63,2.5c0,0.1,0,0.3,0,0.3c0,0.3-0.1,0.4-0.1,0.7
	c-0.4,1.6-1.3,3.3-2.4,4.6c-1.9,2.7-3.9,5.2-5.8,7.9c-0.6,0.7-1.2,1.6-1.6,2.4c-0.6,1-0.4,1.9,0.3,3c0.4,0.4,0.9,0.9,1.3,1.3
	c1.3,1.3,2.8,2.7,4.2,4.2c1.5,1.5,2.8,3,3.7,4.8c0.1,0.3,0.3,0.7,0.4,1.2c0.3,1.5-0.6,2.5-2.1,2.5c-2.8,0-5.6,0-8.6,0
	c-0.6,0-1.2,0-1.8,0c-1.6-0.3-3.1-1.2-4.3-2.4c-1.3-1.3-2.5-2.8-3.9-4.2c-0.6-0.6-1.2-1-1.8-1.5c-1-0.6-1.9-0.3-2.5,0.6
	c-0.3,0.6-0.6,1.2-0.7,1.8c-0.1,1-0.3,2.2-0.4,3.3c-0.1,1.5-0.7,2.1-2.1,2.2c-1.6,0.1-3.3,0.1-5,0c-4-0.3-7.6-1.6-10.8-3.9
	c-2.8-1.6-5-4-7.1-6.7C7.1,18,3.3,10.5,0,2.8c0-0.1,0-0.4,0-0.6c0.1-0.6,0.7-0.9,1.3-1c0.1,0,0.4,0,0.6,0c3,0,5.9,0,8.9,0
	c0.3,0,0.6,0,0.9,0.1c0.9,0.3,1.3,1,1.8,1.8c1.6,4,3.7,7.9,6.2,11.4c0.4,0.6,1,1.3,1.6,1.9c0.3,0.3,0.7,0.6,1.2,0.7
	c0.6,0.3,1.2,0.1,1.5-0.4c0.1-0.3,0.3-0.6,0.4-1c0.3-1,0.4-1.9,0.4-3c0.1-2.5,0.1-4.9-0.3-7.4c0-1.3-0.7-2.3-1.9-2.8
	c-0.3-0.1-0.6-0.1-1-0.3C21,2.1,21,1.9,21.3,1.3C21.8,0.7,22.6,0.1,23.6,0z"/>
</svg>
